<svg width="35" height="35" viewBox="0 0 35 35" fill="none" xmlns="http://www.w3.org/2000/svg">
<rect width="35" height="35" rx="10" fill="#C4C4C4"/>
<path d="M9.12985 16.1667H19.7501C20.2564 16.1667 20.6668 15.7563 20.6668 15.2501C20.6668 14.7438 20.2564 14.3334 19.7501 14.3334H9.12985L11.2317 12.2316C11.5896 11.8736 11.5896 11.2932 11.2317 10.9352C10.8737 10.5773 10.2933 10.5773 9.9353 10.9352L6.26861 14.6019C6.24725 14.6232 6.22705 14.6457 6.20789 14.6691C6.19921 14.6797 6.19165 14.6908 6.18353 14.7017C6.17373 14.7148 6.16363 14.7275 6.15452 14.7412C6.1458 14.7542 6.13824 14.7677 6.13025 14.7811C6.1229 14.7934 6.11516 14.8054 6.10837 14.8181C6.10107 14.8317 6.09488 14.8457 6.08835 14.8597C6.08212 14.8729 6.07555 14.8858 6.06992 14.8994C6.06433 14.9129 6.05978 14.9267 6.05488 14.9405C6.04968 14.955 6.04414 14.9692 6.03967 14.984C6.0355 14.9978 6.03245 15.0117 6.02897 15.0257C6.02514 15.0407 6.02093 15.0556 6.01788 15.071C6.0147 15.0871 6.01281 15.1034 6.01049 15.1196C6.0086 15.1329 6.00602 15.1461 6.00469 15.1597C5.99876 15.2198 5.99876 15.2805 6.00469 15.3406C6.00602 15.3542 6.00856 15.3673 6.01049 15.3807C6.01281 15.3969 6.0147 15.4132 6.01793 15.4293C6.02098 15.4446 6.02519 15.4595 6.02901 15.4746C6.03249 15.4885 6.03554 15.5025 6.03971 15.5162C6.04418 15.531 6.04972 15.5453 6.05492 15.5598C6.05986 15.5735 6.06437 15.5873 6.06996 15.6009C6.07555 15.6144 6.08216 15.6273 6.08839 15.6405C6.09497 15.6545 6.10116 15.6685 6.10846 15.6822C6.11525 15.6948 6.12294 15.7068 6.13029 15.7191C6.13828 15.7325 6.14584 15.746 6.15457 15.7591C6.16363 15.7727 6.17373 15.7854 6.18348 15.7984C6.19165 15.8094 6.19921 15.8205 6.20793 15.8311C6.22697 15.8544 6.24704 15.8767 6.26822 15.8978C6.26839 15.898 6.26848 15.8982 6.26865 15.8983L9.9353 19.565C10.2933 19.9229 10.8737 19.9229 11.2317 19.565C11.5896 19.207 11.5896 18.6266 11.2317 18.2686L9.12985 16.1667Z" fill="#717171"/>
<path d="M27.7922 21.3314C27.801 21.3208 27.8086 21.3096 27.8168 21.2986C27.8265 21.2856 27.8366 21.2729 27.8456 21.2594C27.8544 21.2463 27.8619 21.2327 27.8699 21.2193C27.8772 21.2071 27.8849 21.1951 27.8917 21.1825C27.899 21.1689 27.9052 21.1548 27.9118 21.1408C27.918 21.1276 27.9245 21.1147 27.9302 21.1012C27.9357 21.0877 27.9403 21.0738 27.9452 21.0601C27.9504 21.0456 27.9559 21.0314 27.9604 21.0166C27.9646 21.0028 27.9676 20.9888 27.9711 20.9749C27.9749 20.9599 27.9791 20.9449 27.9822 20.9296C27.9854 20.9135 27.9873 20.8972 27.9896 20.881C27.9915 20.8677 27.9941 20.8545 27.9954 20.841C28.0014 20.7808 28.0014 20.7202 27.9954 20.66C27.9941 20.6465 27.9916 20.6333 27.9896 20.6199C27.9873 20.6037 27.9854 20.5874 27.9822 20.5714C27.9791 20.556 27.9749 20.5411 27.9711 20.526C27.9676 20.5121 27.9646 20.4982 27.9604 20.4844C27.9559 20.4696 27.9504 20.4553 27.9452 20.4409C27.9403 20.4271 27.9357 20.4133 27.9302 20.3998C27.9246 20.3863 27.918 20.3733 27.9118 20.3602C27.9052 20.3462 27.899 20.3321 27.8917 20.3185C27.8849 20.3059 27.8772 20.2939 27.8699 20.2816C27.8619 20.2682 27.8543 20.2546 27.8456 20.2416C27.8365 20.2281 27.8265 20.2153 27.8168 20.2024C27.8086 20.1914 27.801 20.1802 27.7922 20.1695C27.7734 20.1465 27.7534 20.1244 27.7324 20.1034C27.7321 20.103 27.7318 20.1027 27.7315 20.1024L24.0649 16.4357C23.7069 16.0777 23.1265 16.0777 22.7685 16.4357C22.4105 16.7937 22.4105 17.3741 22.7685 17.7321L24.8703 19.8339H14.25C13.7438 19.8339 13.3334 20.2443 13.3334 20.7506C13.3334 21.2568 13.7438 21.6672 14.25 21.6672H24.8703L22.7685 23.769C22.4105 24.127 22.4105 24.7074 22.7685 25.0654C23.1265 25.4234 23.7069 25.4234 24.0649 25.0654L27.7315 21.3987C27.7319 21.3984 27.7321 21.398 27.7324 21.3977C27.7534 21.3766 27.7734 21.3544 27.7922 21.3314Z" fill="#717171"/>
</svg>
