<svg width="196" height="196" viewBox="0 0 196 196" fill="none" xmlns="http://www.w3.org/2000/svg">
<circle cx="98" cy="98" r="98" fill="#CAC5CC"/>
<path d="M85.1121 122.728H104.488V121.216C104.604 108.881 108.619 103.237 118.103 97.4182C128.809 91.0178 135.5 82.2901 135.5 68.9659C135.5 49.2995 120.197 36.9643 97.9709 36.9643C77.6063 36.9643 61.0818 48.2521 60.5 70.3623H81.2137C81.7374 59.4236 89.6505 54.187 97.8545 54.187C106.757 54.187 113.914 60.1218 113.914 69.2568C113.914 77.4026 108.502 82.9884 101.462 87.4104C91.1633 93.8107 85.2285 100.269 85.1121 121.216V122.728ZM95.2944 159.036C102.16 159.036 108.037 153.334 108.095 146.235C108.037 139.253 102.16 133.551 95.2944 133.551C88.1959 133.551 82.4356 139.253 82.4938 146.235C82.4356 153.334 88.1959 159.036 95.2944 159.036Z" fill="#373239"/>
</svg>
