<svg width="146" height="44" viewBox="0 0 146 44" fill="none" xmlns="http://www.w3.org/2000/svg">
<path d="M0.660515 42H2.76989V39.2898H4.20171C6.20029 39.2898 7.44887 38.1051 7.44887 36.294C7.44887 34.5 6.22586 33.2727 4.26563 33.2727H0.660515V42ZM2.76989 37.6278V34.973H3.80966C4.75569 34.973 5.26279 35.4844 5.26279 36.294C5.26279 37.0994 4.75569 37.6278 3.80966 37.6278H2.76989Z" fill="#2B374A" fill-opacity="0.75"/>
<path d="M16.7259 37.6364C16.7259 34.7514 14.902 33.1534 12.5582 33.1534C10.206 33.1534 8.39489 34.7514 8.39489 37.6364C8.39489 40.5085 10.206 42.1193 12.5582 42.1193C14.902 42.1193 16.7259 40.5213 16.7259 37.6364ZM14.5696 37.6364C14.5696 39.3452 13.8196 40.2699 12.5582 40.2699C11.3011 40.2699 10.5469 39.3452 10.5469 37.6364C10.5469 35.9276 11.3011 35.0028 12.5582 35.0028C13.8196 35.0028 14.5696 35.9276 14.5696 37.6364Z" fill="#2B374A" fill-opacity="0.75"/>
<path d="M19.6161 42H21.6445L23.217 36.7074H23.2852L24.8576 42H26.8903L29.4258 33.2727H27.0991L25.7781 39.0043H25.7056L24.2014 33.2727H22.3008L20.7965 38.9915H20.7241L19.4073 33.2727H17.0764L19.6161 42Z" fill="#2B374A" fill-opacity="0.75"/>
<path d="M30.2972 42H36.3825V40.2869H32.4066V38.4929H36.0714V36.7756H32.4066V34.9858H36.3825V33.2727H30.2972V42Z" fill="#2B374A" fill-opacity="0.75"/>
<path d="M37.7035 42H39.8129V39.0128H40.8952L42.489 42H44.7901L42.9791 38.6761C43.9379 38.2415 44.4918 37.3849 44.4918 36.179C44.4918 34.3849 43.2688 33.2727 41.3086 33.2727H37.7035V42ZM39.8129 37.3509V34.973H40.8526C41.7987 34.973 42.3058 35.3693 42.3058 36.179C42.3058 36.9886 41.7987 37.3509 40.8526 37.3509H39.8129Z" fill="#2B374A" fill-opacity="0.75"/>
<path d="M45.6488 42H51.734V40.2869H47.7582V38.4929H51.4229V36.7756H47.7582V34.9858H51.734V33.2727H45.6488V42Z" fill="#2B374A" fill-opacity="0.75"/>
<path d="M56.2809 42C58.94 42 60.5891 40.3594 60.5891 37.6321C60.5891 34.9091 58.94 33.2727 56.2766 33.2727H53.055V42H56.2809ZM55.1644 40.2017V35.071H56.1701C57.6701 35.071 58.4755 35.7528 58.4755 37.6321C58.4755 39.5199 57.6701 40.2017 56.1999 40.2017H55.1644Z" fill="#2B374A" fill-opacity="0.75"/>
<path d="M64.3988 42H68.315C70.2454 42 71.3533 40.9688 71.3533 39.5582C71.3533 38.2969 70.4372 37.5043 69.3803 37.4574V37.3722C70.3391 37.1719 71.0124 36.4773 71.0124 35.4801C71.0124 34.1634 69.9982 33.2727 68.038 33.2727H64.3988V42ZM66.5082 40.2997V38.2202H67.8505C68.6559 38.2202 69.1502 38.6463 69.1502 39.3153C69.1502 39.9332 68.7241 40.2997 67.8121 40.2997H66.5082ZM66.5082 36.8608V34.9474H67.7099C68.413 34.9474 68.8604 35.3097 68.8604 35.8892C68.8604 36.5028 68.3661 36.8608 67.6758 36.8608H66.5082Z" fill="#2B374A" fill-opacity="0.75"/>
<path d="M71.9329 33.2727L75.1246 39.0852V42H77.2212V39.0852L80.413 33.2727H78.0565L76.2113 36.9247H76.1346L74.2894 33.2727H71.9329Z" fill="#2B374A" fill-opacity="0.75"/>
<path d="M13.3409 7.70454H18.7273C18.6818 3.35227 15.2159 0.40909 9.80682 0.40909C4.48864 0.40909 0.659094 3.30682 0.693185 7.63636C0.681821 11.1705 3.15909 13.1591 7.18182 14.0795L9.61364 14.6477C12.1705 15.2386 13.3182 15.9318 13.3409 17.2386C13.3182 18.6591 11.9886 19.6477 9.72728 19.6477C7.23864 19.6477 5.60228 18.4886 5.47728 16.25H0.0909119C0.159094 21.6932 3.94318 24.2955 9.79546 24.2955C15.5909 24.2955 19.0227 21.6705 19.0455 17.25C19.0227 13.5341 16.5114 11.2614 11.9205 10.25L9.92046 9.79545C7.80682 9.34091 6.46591 8.63636 6.51137 7.25C6.52273 5.97727 7.61364 5.05682 9.79546 5.05682C11.9886 5.05682 13.1932 6.04545 13.3409 7.70454Z" fill="#3AB549"/>
<path d="M21.8864 24H27.4432V18.7614L28.5682 17.3977L32.7273 24H39.1477L32.7045 14.1477L38.8977 6.54545H32.6023L27.6932 12.7955H27.4432V0.727272H21.8864V24Z" fill="#3AB549"/>
<path d="M44.6591 30.5455C48.6591 30.5455 50.6477 28.5227 51.6136 25.6705L58.1932 6.55682L52.3409 6.54545L49.0795 19H48.8977L45.6818 6.54545H39.8636L46.0682 24.6364L45.8523 25.1591C45.3182 26.4659 44.1136 26.4886 42.4773 25.9545L41.25 29.9886C42.0909 30.3295 43.3295 30.5455 44.6591 30.5455Z" fill="#3AB549"/>
<path d="M60.3239 30.5455H65.8807V21.1705H65.9943C66.6989 22.7841 68.267 24.25 70.9034 24.25C74.767 24.25 77.8807 21.2273 77.8807 15.2841C77.8807 9.125 74.5852 6.31818 70.9375 6.31818C68.1761 6.31818 66.6648 7.93182 65.9943 9.53409H65.8239V6.54545H60.3239V30.5455ZM65.7671 15.2727C65.7671 12.4205 66.9489 10.6591 68.983 10.6591C71.0398 10.6591 72.1761 12.4659 72.1761 15.2727C72.1761 18.0909 71.0398 19.9205 68.983 19.9205C66.9489 19.9205 65.7671 18.1023 65.7671 15.2727Z" fill="#3AB549"/>
<path d="M88.9403 24.3295C94.429 24.3295 97.7585 20.7045 97.7585 15.3295C97.7585 9.94318 94.429 6.31818 88.9403 6.31818C83.4517 6.31818 80.1222 9.94318 80.1222 15.3295C80.1222 20.7045 83.4517 24.3295 88.9403 24.3295ZM88.9744 20.1364C86.9176 20.1364 85.7812 18.1818 85.7812 15.2955C85.7812 12.3977 86.9176 10.4318 88.9744 10.4318C90.9631 10.4318 92.0994 12.3977 92.0994 15.2955C92.0994 18.1818 90.9631 20.1364 88.9744 20.1364Z" fill="#3AB549"/>
<path d="M108.753 24.3295C114.241 24.3295 117.571 20.7045 117.571 15.3295C117.571 9.94318 114.241 6.31818 108.753 6.31818C103.264 6.31818 99.9347 9.94318 99.9347 15.3295C99.9347 20.7045 103.264 24.3295 108.753 24.3295ZM108.787 20.1364C106.73 20.1364 105.594 18.1818 105.594 15.2955C105.594 12.3977 106.73 10.4318 108.787 10.4318C110.776 10.4318 111.912 12.3977 111.912 15.2955C111.912 18.1818 110.776 20.1364 108.787 20.1364Z" fill="#3AB549"/>
<path d="M125.974 0.727272H120.418V24H125.974V0.727272Z" fill="#3AB549"/>
<path d="M144.75 11.875C144.455 8.42045 141.625 6.31818 136.898 6.31818C132.17 6.31818 129.159 8.375 129.182 11.875C129.159 14.5568 130.875 16.2841 134.364 16.9318L137.409 17.5114C138.852 17.7955 139.511 18.25 139.534 19.0227C139.511 19.8977 138.534 20.4773 137.114 20.4773C135.534 20.4773 134.466 19.7955 134.227 18.5227L128.739 18.6591C129.136 22.1136 132.102 24.3295 137.091 24.3295C141.761 24.3295 145.159 22 145.182 18.4091C145.159 15.8636 143.477 14.3523 140 13.6818L136.636 13.0455C135.159 12.75 134.682 12.2273 134.693 11.5568C134.682 10.6705 135.716 10.125 137 10.125C138.466 10.125 139.489 10.9091 139.648 12.0114L144.75 11.875Z" fill="#3AB549"/>
<g opacity="0.75">
<path d="M90 44C93.3137 44 96 41.3137 96 38C96 34.6863 93.3137 32 90 32C86.6863 32 84 34.6863 84 38C84 41.3137 86.6863 44 90 44Z" fill="url(#paint0_linear)"/>
<mask id="mask0" mask-type="alpha" maskUnits="userSpaceOnUse" x="84" y="32" width="12" height="12">
<path d="M90 44C93.3137 44 96 41.3137 96 38C96 34.6863 93.3137 32 90 32C86.6863 32 84 34.6863 84 38C84 41.3137 86.6863 44 90 44Z" fill="url(#paint1_linear)"/>
</mask>
<g mask="url(#mask0)">
<path d="M88.0189 43.9686C85.7703 43.1861 84.1305 41.1033 84 38.6205C85.6637 37.4693 87.6837 36.8008 89.836 36.8009C89.8767 36.8009 89.9178 36.8012 89.9586 36.8016C89.9614 36.8015 89.9643 36.8014 89.9672 36.8013C89.9801 36.8009 89.9929 36.8005 90.0058 36.8005C90.8264 36.8005 91.4916 37.4554 91.4916 38.2633C91.4916 38.6672 91.3254 39.0329 91.0569 39.2982C91.0126 39.3396 90.9812 39.3677 90.9484 39.3941C89.5901 40.6032 88.559 42.1733 88.0189 43.9686Z" fill="url(#paint2_linear)"/>
</g>
</g>
<defs>
<linearGradient id="paint0_linear" x1="90" y1="32" x2="90" y2="44" gradientUnits="userSpaceOnUse">
<stop stop-color="#1D173A"/>
<stop offset="1" stop-color="#102176"/>
</linearGradient>
<linearGradient id="paint1_linear" x1="90" y1="32" x2="90" y2="44" gradientUnits="userSpaceOnUse">
<stop stop-color="#1D173C"/>
<stop offset="1" stop-color="#152170"/>
</linearGradient>
<linearGradient id="paint2_linear" x1="87.7458" y1="36.8005" x2="87.7458" y2="43.9686" gradientUnits="userSpaceOnUse">
<stop stop-color="#36DBFD"/>
<stop offset="1" stop-color="#0085FF"/>
</linearGradient>
</defs>
</svg>
