<svg width="183" height="50" viewBox="0 0 183 50" fill="none" xmlns="http://www.w3.org/2000/svg">
<ellipse cx="24.9644" cy="25" rx="24.9644" ry="25" fill="url(#paint0_linear_136_111)"/>
<path d="M44.1936 25.3378C45.037 33.9527 38.3491 42.5676 25.317 42.5676C11.8338 42.5676 5.73487 34.1216 5.73486 25.8446C7.39434 27.6331 12.3083 31.2997 24.6947 31.2997C38.0039 31.2997 43.2489 26.735 44.1936 25.3378Z" fill="url(#paint1_linear_136_111)" fill-opacity="0.6"/>
<ellipse cx="25.1329" cy="24.6622" rx="19.0607" ry="6.41892" fill="url(#paint2_radial_136_111)" fill-opacity="0.6"/>
<ellipse cx="25.3016" cy="18.2432" rx="15.8558" ry="5.40541" fill="url(#paint3_radial_136_111)" fill-opacity="0.6"/>
<path d="M69.6262 17.6135C70.9136 17.6135 72.1645 17.8689 73.379 18.3797L73.0875 19.9486L72.7596 20.0216C71.618 19.3649 70.5128 19.0365 69.444 19.0365C68.4482 19.0365 67.6345 19.3162 67.0029 19.8757C66.3714 20.4351 66.0556 21.1162 66.0556 21.9189C66.0556 22.6973 66.3471 23.3176 66.9301 23.7797C67.513 24.2176 68.3996 24.7041 69.5898 25.2392C70.5614 25.7014 71.3144 26.1027 71.8487 26.4432C72.4074 26.7838 72.881 27.2338 73.2697 27.7932C73.6826 28.3527 73.8891 29.0338 73.8891 29.8365C73.8891 30.6878 73.6583 31.4784 73.1968 32.2081C72.7596 32.9378 72.1159 33.5216 71.2658 33.9595C70.4156 34.3973 69.4319 34.6162 68.3146 34.6162C66.6872 34.6162 65.1691 34.2149 63.7603 33.4122L64.0153 31.7703L64.2703 31.6243C64.8776 32.1351 65.5455 32.5243 66.2742 32.7919C67.0272 33.0595 67.7438 33.1932 68.4239 33.1932C69.5412 33.1932 70.4399 32.8892 71.12 32.2811C71.8001 31.673 72.1402 30.9554 72.1402 30.1284C72.1402 29.3743 71.8609 28.7784 71.3022 28.3405C70.7435 27.8784 69.8691 27.3676 68.6789 26.8081C67.7316 26.3703 66.9665 25.9689 66.3835 25.6041C65.8006 25.2392 65.3027 24.7649 64.8897 24.1811C64.5011 23.5973 64.3068 22.8919 64.3068 22.0649C64.3068 20.7757 64.7926 19.7176 65.7642 18.8905C66.7357 18.0392 68.0231 17.6135 69.6262 17.6135Z" fill="white"/>
<path d="M80.821 27.173L80.9303 34.3973H79.0722L79.1815 27.2824L79.0722 8.96622L80.9668 8.78378L80.821 27.173ZM83.6994 25.4581C86.0797 28.4014 88.6059 31.2595 91.2777 34.0324V34.2878C91.0348 34.4095 90.7312 34.4946 90.3669 34.5432C90.0025 34.6162 89.7596 34.6649 89.6382 34.6892L89.3832 34.6162C86.5413 31.527 83.9908 28.5473 81.7319 25.677V25.4581L87.525 19.1459L88.5087 17.7959H90.7677L83.6994 25.4581Z" fill="white"/>
<path d="M94.4649 19.6203L98.9828 32.0986H99.2014L103.901 19.7297L104.448 17.7959H106.233L100.039 34.0689C99.4079 35.723 98.7521 37.0122 98.0719 37.9365C97.4161 38.8608 96.6146 39.5662 95.6673 40.0527C94.7443 40.5635 93.5176 40.9892 91.9874 41.3297H91.7688C91.4287 41.0135 91.1737 40.6486 91.0036 40.2351L91.0401 39.9432C92.376 39.7 93.4569 39.3838 94.2827 38.9946C95.1086 38.6054 95.8251 38.0581 96.4324 37.3527C97.0396 36.6473 97.6347 35.6622 98.2177 34.3973L92.1331 17.8689L93.9184 17.6865L94.4649 19.6203Z" fill="white"/>
<path d="M117.601 17.3946C119.69 17.3946 121.293 18.1 122.41 19.5108C123.552 20.8973 124.122 22.8919 124.122 25.4946C124.122 28.4378 123.406 30.7122 121.973 32.3176C120.54 33.923 118.499 34.7257 115.852 34.7257C115.002 34.7257 114.054 34.6284 113.01 34.4338L113.119 41.1473H109.439L109.694 27.3554L109.439 17.8324L113.01 17.5041L112.973 19.9122H113.228C114.006 19.2311 114.722 18.7081 115.378 18.3432C116.034 17.9784 116.775 17.6622 117.601 17.3946ZM116.143 32.1716C117.601 32.1716 118.718 31.6486 119.495 30.6027C120.272 29.5568 120.661 28.0608 120.661 26.1149C120.661 24.2662 120.345 22.8554 119.714 21.8824C119.082 20.8851 118.171 20.3865 116.981 20.3865C116.325 20.3865 115.67 20.5689 115.014 20.9338C114.382 21.2743 113.69 21.8216 112.937 22.5757L112.901 27.027L112.973 31.3689C114.115 31.9041 115.172 32.1716 116.143 32.1716Z" fill="white"/>
<path d="M134.677 17.2486C137.033 17.2486 138.843 17.9905 140.106 19.4743C141.393 20.9338 142.037 23.0135 142.037 25.7135C142.037 28.6081 141.357 30.8338 139.997 32.3905C138.637 33.9473 136.705 34.7257 134.204 34.7257C131.848 34.7257 130.026 33.9959 128.738 32.5365C127.475 31.0527 126.844 28.9608 126.844 26.2608C126.844 23.3662 127.524 21.1405 128.884 19.5838C130.244 18.027 132.175 17.2486 134.677 17.2486ZM134.459 19.8392C131.69 19.8392 130.305 21.7122 130.305 25.4581C130.305 27.7446 130.645 29.4351 131.325 30.5297C132.005 31.6243 133.05 32.1716 134.459 32.1716C135.843 32.1716 136.876 31.7095 137.556 30.7851C138.236 29.8608 138.576 28.45 138.576 26.5527C138.576 24.2662 138.236 22.5757 137.556 21.4811C136.876 20.3865 135.843 19.8392 134.459 19.8392Z" fill="white"/>
<path d="M152.61 17.2486C154.966 17.2486 156.776 17.9905 158.039 19.4743C159.326 20.9338 159.97 23.0135 159.97 25.7135C159.97 28.6081 159.29 30.8338 157.929 32.3905C156.569 33.9473 154.638 34.7257 152.136 34.7257C149.78 34.7257 147.958 33.9959 146.671 32.5365C145.408 31.0527 144.777 28.9608 144.777 26.2608C144.777 23.3662 145.457 21.1405 146.817 19.5838C148.177 18.027 150.108 17.2486 152.61 17.2486ZM152.391 19.8392C149.622 19.8392 148.238 21.7122 148.238 25.4581C148.238 27.7446 148.578 29.4351 149.258 30.5297C149.938 31.6243 150.983 32.1716 152.391 32.1716C153.776 32.1716 154.808 31.7095 155.488 30.7851C156.168 29.8608 156.508 28.45 156.508 26.5527C156.508 24.2662 156.168 22.5757 155.488 21.4811C154.808 20.3865 153.776 19.8392 152.391 19.8392Z" fill="white"/>
<path d="M167.591 26.9905L167.846 34.3973H164.13L164.385 27.3189L164.167 9.07568L167.883 8.78378L167.591 26.9905Z" fill="white"/>
<path d="M178.263 17.2851C179.721 17.2851 181.142 17.5649 182.526 18.1243L182.016 21.0432L181.542 21.1527C180.279 20.3013 179.041 19.8757 177.826 19.8757C177.097 19.8757 176.514 20.0703 176.077 20.4595C175.664 20.8486 175.458 21.323 175.458 21.8824C175.458 22.4905 175.701 22.977 176.187 23.3419C176.697 23.7068 177.474 24.1081 178.518 24.5459C179.466 24.9595 180.231 25.3486 180.814 25.7135C181.421 26.0784 181.931 26.5649 182.344 27.173C182.781 27.7811 183 28.5351 183 29.4351C183 30.3595 182.757 31.2351 182.271 32.0622C181.785 32.8649 181.069 33.5095 180.121 33.9959C179.174 34.4824 178.033 34.7257 176.697 34.7257C175.021 34.7257 173.32 34.3486 171.596 33.5946L172.033 30.4932L172.434 30.2378C173.138 30.8459 173.915 31.3324 174.766 31.6973C175.616 32.0378 176.393 32.2081 177.097 32.2081C177.875 32.2081 178.494 32.0014 178.956 31.5878C179.441 31.15 179.684 30.6392 179.684 30.0554C179.684 29.4473 179.441 28.973 178.956 28.6324C178.47 28.2676 177.705 27.8419 176.66 27.3554C175.713 26.9419 174.936 26.5527 174.328 26.1878C173.721 25.823 173.199 25.3243 172.762 24.6919C172.349 24.0595 172.142 23.2811 172.142 22.3568C172.142 20.873 172.689 19.6568 173.782 18.7081C174.875 17.7595 176.369 17.2851 178.263 17.2851Z" fill="white"/>
<defs>
<linearGradient id="paint0_linear_136_111" x1="25.1467" y1="-2.27147e-10" x2="25.1466" y2="50" gradientUnits="userSpaceOnUse">
<stop stop-color="#25247D"/>
<stop offset="1" stop-color="#CA3CB0"/>
</linearGradient>
<linearGradient id="paint1_linear_136_111" x1="24.9022" y1="19.2901" x2="24.9022" y2="38.7869" gradientUnits="userSpaceOnUse">
<stop stop-color="#D50F6E"/>
<stop offset="1"/>
</linearGradient>
<radialGradient id="paint2_radial_136_111" cx="0" cy="0" r="1" gradientUnits="userSpaceOnUse" gradientTransform="translate(25.1329 24.6622) rotate(90) scale(6.41892 19.0607)">
<stop stop-color="#2669F5"/>
<stop offset="1" stop-color="#36DBFD"/>
</radialGradient>
<radialGradient id="paint3_radial_136_111" cx="0" cy="0" r="1" gradientUnits="userSpaceOnUse" gradientTransform="translate(25.3016 18.2432) rotate(90) scale(5.40541 15.8558)">
<stop stop-color="#2669F5"/>
<stop offset="1" stop-color="#36DBFD"/>
</radialGradient>
</defs>
</svg>
