<svg width="48" height="48" viewBox="0 0 48 48" fill="none" xmlns="http://www.w3.org/2000/svg">
<path d="M47.2808 29.8082C44.0772 42.6644 31.0521 50.489 18.1921 47.2806C5.33218 44.0722 -2.4891 31.0529 0.719765 18.1956C3.92863 5.33828 16.9467 -2.48997 29.8038 0.719623C42.6609 3.92921 50.4891 16.9471 47.2808 29.8082Z" fill="#F7931A"/>
<path d="M34.5843 20.5802C35.0615 17.3865 32.6297 15.6695 29.3042 14.5242L30.3842 10.1981L27.7499 9.54192L26.6978 13.7542C26.0061 13.5819 25.2952 13.4182 24.5886 13.2579L25.6446 9.01775L23.0127 8.36157L21.9361 12.686L16.624 11.3703L15.9232 14.1841C15.9232 14.1841 17.8773 14.6319 17.8361 14.6598C18.9026 14.9262 19.0961 15.6318 19.0634 16.1915L16.108 28.0429C15.9775 28.367 15.6467 28.8527 14.9013 28.667C14.9277 28.7054 12.987 28.1869 12.987 28.1869L11.6794 31.2053L16.9836 32.5445L15.8935 36.921L18.5239 37.5771L19.6039 33.2477C20.3239 33.4426 21.02 33.6226 21.7021 33.792L20.6264 38.1013L23.2602 38.7575L24.3503 34.3894C28.8415 35.239 32.2188 34.8963 33.6385 30.8373C34.7838 27.5673 33.5823 25.6808 31.2192 24.4501C32.9401 24.0517 34.2361 22.9203 34.5819 20.5819L34.5843 20.5802ZM28.5648 29.0186C27.7487 32.2886 22.2442 30.5215 20.4581 30.0775L21.9044 24.2801C23.6895 24.7256 29.4139 25.6079 28.5657 29.0181L28.5648 29.0186ZM29.3817 20.5339C28.6392 23.51 24.0558 21.9979 22.5682 21.6269L23.8777 16.3681C25.3657 16.7397 30.1541 17.4314 29.3798 20.5344" fill="white"/>
</svg>
