<svg width="48" height="48" viewBox="0 0 48 48" fill="none" xmlns="http://www.w3.org/2000/svg">
<path d="M47.2808 29.8082C44.0772 42.6644 31.0521 50.489 18.1921 47.2806C5.33218 44.0722 -2.4891 31.0529 0.719765 18.1956C3.92863 5.33828 16.9468 -2.48997 29.8038 0.719623C42.6609 3.92921 50.4891 16.9471 47.2808 29.8082Z" fill="#E5E8E9"/>
<path d="M24.0656 8.26611L23.854 8.98594V29.8703L24.0656 30.0816L33.7594 24.3518L24.0656 8.26611Z" fill="#343434"/>
<path d="M24.0656 8.26611L14.3718 24.3518L24.0656 30.0819V8.26611Z" fill="#8C8C8C"/>
<path d="M24.0654 31.9177L23.946 32.0633V39.5038L24.0654 39.8512L33.7649 26.1907L24.0654 31.9177Z" fill="#3C3C3B"/>
<path d="M24.0656 39.8512V31.9174L14.3718 26.1907L24.0656 39.8512Z" fill="#8C8C8C"/>
<path d="M24.0654 30.0818L33.7589 24.3517L24.0654 19.9456V30.0818Z" fill="#141414"/>
<path d="M14.3718 24.3517L24.0653 30.0819V19.9453" fill="#393939"/>
</svg>
