<svg width="48" height="48" viewBox="0 0 48 48" fill="none" xmlns="http://www.w3.org/2000/svg">
<ellipse cx="24" cy="24.0404" rx="24" ry="23.9447" fill="white"/>
<path fill-rule="evenodd" clip-rule="evenodd" d="M39.1389 10.0738L37.821 11.3908C44.3392 18.5191 44.3392 29.4451 37.821 36.5725L39.1389 37.8894C46.3934 30.0243 46.3934 17.9064 39.1389 10.0417" fill="#837F8B"/>
<path fill-rule="evenodd" clip-rule="evenodd" d="M11.4179 10.1881C18.5459 3.66935 29.4712 3.66935 36.5996 10.1881L37.9175 8.8699C30.052 1.61466 17.9346 1.61466 10.0691 8.8699" fill="#837F8B"/>
<path fill-rule="evenodd" clip-rule="evenodd" d="M10.1879 36.5875C3.67765 29.4608 3.67765 18.5454 10.1879 11.4188L8.86981 10.1018C1.61533 17.9674 1.61533 30.0846 8.86981 37.9495" fill="#837F8B"/>
<path fill-rule="evenodd" clip-rule="evenodd" d="M36.5865 37.8032C29.4585 44.3219 18.533 44.3219 11.4048 37.8032L10.0867 39.1202C17.9524 46.3754 30.0695 46.3754 37.9353 39.1202" fill="#837F8B"/>
<path fill-rule="evenodd" clip-rule="evenodd" d="M27.9931 20.6439C27.9931 23.2798 23.8723 22.9591 22.5631 22.9591V18.3155C23.8723 18.3155 27.9931 17.9025 27.9931 20.6439ZM29.0695 27.853C29.0695 30.7349 24.1315 30.4055 22.5588 30.4055V25.2918C24.1315 25.2961 29.0695 24.8438 29.0695 27.8539V27.853ZM32.3206 19.6026C32.0566 16.8525 29.6846 15.9299 26.6842 15.6488V11.8574H24.3643V15.5741C23.7538 15.5741 23.13 15.5741 22.5106 15.5961V11.8574H20.2042V15.6709H15.5038V18.153C15.5038 18.153 17.2171 18.1221 17.1907 18.153C17.5 18.1192 17.8103 18.2066 18.0562 18.3968C18.3021 18.5869 18.4644 18.8649 18.5088 19.172V29.6148C18.5023 29.7223 18.4746 29.8276 18.4272 29.9244C18.3799 30.0213 18.314 30.1079 18.2331 30.1793C18.1523 30.2507 18.0581 30.3055 17.956 30.3407C17.8539 30.3758 17.7459 30.3905 17.6381 30.3839C17.6355 30.3841 17.6328 30.3841 17.6302 30.3839C17.6609 30.4102 15.9432 30.3839 15.9432 30.3839L15.4819 33.1562H20.1646V37.031H22.4842V33.2127H24.3382V37.0128H26.6621V33.1816C30.5808 32.9443 33.3134 31.9777 33.6559 28.3096C33.9329 25.3577 32.5438 24.0407 30.3259 23.5082C31.6747 22.8229 32.5226 21.6146 32.3206 19.6026Z" fill="#F7931A"/>
<path fill-rule="evenodd" clip-rule="evenodd" d="M23.9957 1.87152C11.7816 1.87894 1.88592 11.7861 1.89336 24C1.9008 36.2139 11.808 46.1096 24.0214 46.1021C36.2268 46.095 46.1186 36.2008 46.1234 23.9957C46.1088 11.7839 36.2071 1.88948 23.9954 1.88469L23.9957 1.87152ZM23.9957 48C10.741 47.9978 -0.00263951 37.2508 4.86437e-07 23.9957C0.00264049 10.7406 10.7496 -0.00263343 24.0043 4.84212e-07C37.259 0.0026344 47.9978 10.744 48 23.9957C47.9856 37.2467 37.248 47.9852 23.9957 48Z" fill="black"/>
</svg>
