<svg width="325" height="325" viewBox="0 0 325 325" fill="none" xmlns="http://www.w3.org/2000/svg">
<path d="M46.071 230.711L162.997 298.22L279.929 230.711V95.696L162.997 28.189L46.071 95.696V230.711ZM162.997 311L35 237.1V89.306L162.997 15.404L291 89.306V237.1L162.997 311Z" fill="#A1070C"/>
<path d="M44.579 94.833L163 26.463L281.421 94.833V231.574L163 299.944L44.579 231.574V94.833Z" fill="url(#paint0_linear)"/>
<path d="M217.332 113.173C217.332 118.545 216.272 123.881 214.152 129.181C212.032 134.482 209.187 139.394 205.618 143.917C202.049 148.441 197.932 152.399 193.267 155.791C188.602 159.184 183.761 161.622 178.743 163.106L176.517 159.396C179.485 157.911 182.206 156.003 184.68 153.671C187.154 151.338 189.274 148.706 191.041 145.773C192.808 142.84 194.168 139.73 195.122 136.443C196.076 133.157 196.553 129.818 196.553 126.425C196.553 122.538 195.988 118.863 194.857 115.4C193.726 111.936 192.066 108.915 189.875 106.335C187.684 103.756 184.98 101.724 181.765 100.24C178.549 98.7554 174.856 98.0133 170.686 98.0133C165.597 98.0133 160.933 99.0027 156.692 100.982C152.452 102.961 148.635 105.629 145.243 108.986C141.85 112.343 138.899 116.195 136.39 120.541C133.881 124.888 131.796 129.446 130.136 134.217C128.475 138.988 127.22 143.811 126.372 148.688C125.524 153.565 125.1 158.159 125.1 162.47C125.1 166.852 125.559 171.375 126.478 176.04C127.397 180.704 128.74 185.298 130.507 189.822C132.274 194.345 134.464 198.621 137.08 202.649C139.695 206.678 142.716 210.212 146.144 213.251C149.572 216.29 153.388 218.71 157.593 220.513C161.799 222.315 166.375 223.216 171.322 223.216C174.715 223.216 178.019 222.757 181.234 221.838C184.45 220.919 187.542 219.682 190.511 218.127C193.479 216.572 196.288 214.735 198.939 212.615C201.589 210.494 204.045 208.197 206.307 205.724L209.805 209.116C206.696 213.215 203.003 217.156 198.727 220.937C194.451 224.718 189.839 228.075 184.892 231.008C179.945 233.941 174.768 236.273 169.361 238.005C163.954 239.737 158.6 240.602 153.3 240.602C148.14 240.602 143.281 239.701 138.723 237.899C134.164 236.097 129.977 233.658 126.16 230.584C122.344 227.51 118.933 223.905 115.93 219.771C112.926 215.636 110.382 211.236 108.297 206.572C106.212 201.907 104.622 197.101 103.526 192.154C102.431 187.207 101.883 182.365 101.883 177.63C101.883 170.774 103.031 163.724 105.328 156.48C107.625 149.236 110.788 142.204 114.817 135.383C118.845 128.563 123.598 122.114 129.075 116.036C134.553 109.958 140.454 104.657 146.78 100.134C153.105 95.6103 159.714 92.0235 166.604 89.3731C173.495 86.7228 180.369 85.3976 187.224 85.3976C191.465 85.3976 195.423 86.016 199.098 87.2529C202.773 88.4897 205.953 90.2742 208.639 92.6066C211.325 94.9389 213.445 97.8366 215 101.3C216.555 104.763 217.332 108.721 217.332 113.173Z" fill="#A1070C"/>
<defs>
<linearGradient id="paint0_linear" x1="163" y1="150.15" x2="163" y2="299.944" gradientUnits="userSpaceOnUse">
<stop stop-color="#F7F6F3"/>
<stop offset="1" stop-color="#FEF6D5"/>
</linearGradient>
</defs>
</svg>
