<svg width="65" height="65" viewBox="0 0 65 65" fill="none" xmlns="http://www.w3.org/2000/svg">
<circle cx="32.5" cy="32.5" r="32.5" fill="white"/>
<path d="M15.0032 15.2505L28.2247 32.2492L26.3359 26.583L15.0032 15.2505Z" fill="#231815"/>
<path d="M26.5856 26.3324L32.2521 28.221L15.2532 15L26.5856 26.3324Z" fill="#231815"/>
<path d="M32.4338 28.6538L26.7676 26.765L28.6561 32.4312L32.4338 28.6538Z" fill="#231815"/>
<path d="M15.2505 49.9915L32.2495 36.7706L26.5832 38.6591L15.2505 49.9915Z" fill="#231815"/>
<path d="M26.3327 38.4095L28.2215 32.7432L15 49.7419L26.3327 38.4095Z" fill="#231815"/>
<path d="M28.6541 32.5615L26.7652 38.2277L32.4315 36.3389L28.6541 32.5615Z" fill="#231815"/>
<path d="M38.4135 26.3324L32.747 28.221L49.7462 15L38.4135 26.3324Z" fill="#231815"/>
<path d="M38.6641 26.5821L36.7752 32.2483L49.9968 15.2497L38.6641 26.5821Z" fill="#231815"/>
<path d="M36.3427 32.43L38.2312 26.7638L32.565 28.6526L36.3427 32.43Z" fill="#231815"/>
<path d="M50 49.7495L36.7785 32.7508L38.6673 38.417L50 49.7495Z" fill="#231815"/>
<path d="M38.4176 38.6676L32.7514 36.779L49.7503 50L38.4176 38.6676Z" fill="#231815"/>
<path d="M32.5694 36.3462L38.2359 38.235L36.3471 32.5688L32.5694 36.3462Z" fill="#231815"/>
</svg>
