<svg width="64" height="64" viewBox="0 0 64 64" fill="none" xmlns="http://www.w3.org/2000/svg">
<path d="M32.0884 15.8174C30.6459 14.7432 29.857 14.2849 28.527 13.7485C27.3141 13.2593 25.2615 12.7958 24.3049 12.795C24.0851 12.795 23.8863 12.7638 23.8629 12.726C23.8055 12.6329 25.1037 11.4067 25.8299 10.8682C26.9622 10.0287 28.5338 9.34124 30.0772 9.01047C31.1171 8.78761 33.1378 8.76808 34.1529 8.97112C35.6055 9.26165 37.1498 9.89988 38.4035 10.7278C39.2407 11.2806 40.7472 12.8001 41.3304 13.6801C41.8375 14.4451 42.5041 15.6848 42.4418 15.7471C42.4199 15.769 42.0565 15.7187 41.6341 15.6354C40.6305 15.4375 38.5562 15.3631 37.2963 15.4799C36.0556 15.595 35.3684 15.741 34.2861 16.1194C33.7993 16.2896 33.3125 16.4453 33.2044 16.4654C33.0479 16.4944 32.8196 16.3619 32.0884 15.8174V15.8174Z" fill="#810331"/>
<path d="M15.3252 32.9577C15.9535 34.0379 18.9908 39.6205 21.7266 44.7293C25.2092 51.2329 26.3141 53.2387 27.5786 55.3541C29.259 58.1653 30.3639 59.5346 31.3867 60.0736C31.6474 60.211 31.9186 60.3232 31.9891 60.3232C32.1898 60.3232 32.8684 59.9742 33.2141 59.6931C34.3686 58.7543 35.9207 56.4229 38.5326 51.7041C38.8516 51.1277 40.6489 47.8021 42.5265 44.3138C45.7123 38.3951 48.1652 33.8895 48.6508 33.0647C48.6748 33.0235 48.6918 32.9916 48.7102 32.9577H15.3252Z" fill="#FAF0DF"/>
<path d="M15.3252 32.9577C15.9535 34.0379 18.9908 39.6205 21.7266 44.7293C25.2092 51.2329 26.3141 53.2387 27.5786 55.3541C29.259 58.1653 30.3639 59.5346 31.3867 60.0736C31.6474 60.211 31.9186 60.3232 31.9891 60.3232C32.1898 60.3232 32.8684 59.9742 33.2141 59.6931C34.3686 58.7543 35.9207 56.4229 38.5326 51.7041C38.8516 51.1277 40.6489 47.8021 42.5265 44.3138C45.7123 38.3951 48.1652 33.8895 48.6508 33.0647C48.6748 33.0235 48.6918 32.9916 48.7102 32.9577H15.3252Z" fill="white"/>
<path d="M42.8656 4.07211C42.5848 4.06016 42.3014 4.16953 42.098 4.39583L32.6565 14.9043C33.3764 15.3969 33.8337 15.7924 33.8337 15.7924C33.8337 15.7924 35.4689 14.866 37.277 14.8452C37.8358 14.8388 38.4258 14.8708 38.9745 14.9178L45.6006 7.54294C45.962 7.1406 45.9293 6.5259 45.5269 6.16441L43.477 4.32241C43.3009 4.16425 43.084 4.08138 42.8656 4.07211V4.07211ZM14.0381 29.7189L13.9665 29.9073C13.8595 30.1886 13.8822 31.16 14.0081 31.694C14.1544 32.3147 14.3871 32.7216 14.6255 32.7736C14.7283 32.7961 14.8455 32.8252 14.8858 32.8387C14.926 32.8521 16.3876 32.8661 18.1334 32.869L21.3077 32.8743V31.2964V29.7185H17.6729L14.0381 29.7189ZM32.0247 29.8489V30.6069C32.0247 31.0237 32.0448 31.6594 32.0685 32.0196L32.1119 32.6743L32.8594 32.6958C34.4246 32.7405 42.6505 32.7439 46.0794 32.7012L49.6584 32.6568L49.882 32.213C50.0837 31.8127 50.1086 31.6993 50.1339 31.0593C50.1554 30.5194 50.1381 30.2895 50.0574 30.0992L49.9529 29.8489H40.9879L32.0247 29.8489ZM25.3196 31.8024C25.0913 31.8172 25.0498 32.041 25.0498 32.4172V32.7029L26.7448 32.7742L28.4047 32.7029V32.3665V32.03L28.1688 31.9422C28.0441 31.8958 27.7692 31.9769 27.2277 31.999C26.3773 32.0336 25.9525 31.9736 25.593 31.8519C25.5045 31.8219 25.4302 31.8058 25.3677 31.8025C25.3508 31.8014 25.3347 31.8014 25.3196 31.8025V31.8024ZM42.1428 32.8963C41.6815 32.8977 41.2241 32.9165 40.781 32.9578H43.9268C43.3415 32.9197 42.7391 32.8941 42.1428 32.8963ZM43.9268 32.9578C46.3087 33.1127 48.4071 33.4786 48.6507 33.0648C48.6748 33.0236 48.6917 32.9917 48.7101 32.9578H43.9268ZM40.781 32.9578H15.3251C15.9535 34.038 18.9907 39.6206 21.7265 44.7294C25.2091 51.233 26.314 53.2388 27.5785 55.3542C29.259 58.1654 30.3638 59.5347 31.3866 60.0736C31.6474 60.211 31.9185 60.3233 31.989 60.3233C28.1095 49.4909 30.855 40.0332 37.5305 34.0912C38.3079 33.3992 39.4822 33.0789 40.781 32.9578Z" fill="#CA054D"/>
<path d="M36.1901 27.9703C36.5357 26.6198 36.6306 25.7565 36.593 24.3054C36.5696 23.4036 36.5216 22.8606 36.421 22.3578C36.0309 20.4089 35.3051 18.7472 34.1517 17.1621C33.7831 16.6555 33.7759 16.6661 34.6538 16.4185C35.7498 16.1094 36.4118 16.0254 37.7301 16.0283C39.1178 16.0314 39.8 16.1374 40.9866 16.5345C43.9817 17.5367 46.6772 20.1757 47.7909 23.1961C47.8978 23.486 48.0684 24.0763 48.1701 24.5079C48.3467 25.2577 48.355 25.3666 48.3569 26.9567C48.3584 28.2524 48.34 28.6326 48.2734 28.6737C48.1458 28.7527 44.5417 28.8136 40.0005 28.8136H35.9743L36.1901 27.9703Z" fill="#A4D4B4"/>
<path d="M22.4089 42.3192C22.1465 42.0568 22.1076 41.1568 22.1076 35.3586C22.1076 30.4349 21.4062 29.5105 21.2361 29.3404C21.074 29.1783 20.5999 29.5797 18.205 29.0378L14.8892 29.2454L14.365 27.0014C13.9883 25.3888 13.9592 22.4957 14.3602 21.1314C14.8976 19.3029 15.9796 17.487 17.3276 16.1513C21.6044 11.9136 28.1199 11.794 32.4333 15.8741C33.86 17.2237 34.7685 18.6053 35.49 20.5229C36.1181 22.1923 36.2058 25.3995 35.6706 27.1295L35.3318 28.2249L34.5635 29.0238L31.9107 29.1303L31.6724 30.5402C31.47 31.7378 31.5424 33.2399 31.5286 33.8443C31.5051 34.8648 31.467 34.9523 30.9941 35.071C30.1612 35.28 29.1571 35.4565 29.1571 33.1248C29.1571 31.0216 29.4491 30.5823 28.7644 30.5823C28.5709 30.5823 28.3204 30.9705 28.0645 31.1382C27.3566 31.602 26.0829 31.4047 25.3916 30.8936C25.0446 30.637 24.9429 30.3341 24.6303 30.3702C24.1348 30.4274 24.2583 30.4464 24.1774 31.1179C24.0888 31.8538 24.1242 34.4938 24.1744 37.1352C24.2605 41.6696 24.3052 42.1314 23.6999 42.3523C23.2647 42.5111 22.7418 42.3192 22.4089 42.3192H22.4089Z" fill="white"/>
<path d="M43.0961 3.15261C42.631 3.13286 42.1577 3.31794 41.8246 3.68867L36.9713 9.09014C35.5389 8.38981 33.9813 8.03671 32.4199 8.03555V8.03566C29.8688 8.03433 27.3086 8.96909 25.272 10.8547C24.8328 11.2613 24.0163 12.2292 23.6928 12.7269C23.6813 12.7451 23.3612 12.8137 22.982 12.8792C22.6027 12.9447 21.9297 13.1143 21.4864 13.2563C17.4166 14.56 14.39 17.9643 13.4704 22.2723C13.3232 22.9616 13.2874 23.4103 13.2874 24.5605C13.2874 26.0494 13.4011 26.8268 13.8087 28.1243L13.9764 28.6585L13.6741 28.924C13.5079 29.07 13.3042 29.342 13.2217 29.5285C13.0102 30.0066 12.9391 30.8696 13.0561 31.5413C13.3348 33.1416 14.0944 34.0194 15.2057 34.0264C15.2692 34.1398 15.3126 34.2154 15.3833 34.3432C15.7798 35.0601 16.312 36.032 16.9261 37.16C18.1546 39.4159 19.7119 42.2976 21.1729 45.0261C24.6562 51.5309 25.7675 53.5495 27.0391 55.6767C28.4632 57.5716 30.1088 59.8667 31.1517 60.6022C31.6052 60.9221 32.1994 60.9085 32.709 60.689C34.9111 59.7404 43.8199 43.0362 48.8294 34.0256L48.9443 34.0142C49.6485 33.9436 50.0251 33.718 50.389 33.1492C51.1352 31.9827 51.2109 30.0395 50.5444 29.1657C50.2905 28.8327 49.8744 28.5585 49.6222 28.558C49.4478 28.5579 49.4457 28.5377 49.486 27.139C49.5353 25.4321 49.4016 24.4585 48.916 22.993C48.321 21.1976 47.5127 19.8571 46.2046 18.4962C45.2678 17.5217 44.3757 16.8335 43.2661 16.2295L42.491 15.8076L42.2618 15.1238C42.0504 14.4926 41.7774 13.8814 41.4514 13.3035L46.3986 7.79739C46.9907 7.1384 46.9353 6.10569 46.2763 5.51361L44.1092 3.56627C43.8209 3.30726 43.4589 3.16782 43.0969 3.15245L43.0961 3.15261ZM43.0473 4.32256C43.1469 4.32671 43.2425 4.36236 43.3263 4.43769L45.4935 6.38482C45.6851 6.55698 45.6995 6.82399 45.5275 7.01558L40.7947 12.2829L39.8544 13.3294L38.7068 14.6066C38.1992 14.569 37.6746 14.5343 37.1576 14.5402C35.3789 14.5607 34.047 15.218 33.6007 15.4524C33.5197 15.3852 33.3257 15.2476 33.1409 15.1055L37.0771 10.7246L38.0176 9.67793L42.6957 4.47148C42.7925 4.36377 42.9189 4.31709 43.0474 4.32255L43.0473 4.32256ZM32.4356 9.39781C33.6471 9.40738 34.858 9.66476 36.0032 10.1677L31.844 14.7966C31.8248 14.8178 31.8074 14.8404 31.7917 14.8642C30.3862 13.8628 28.9134 13.2306 27.2442 12.9085C26.7535 12.8138 26.1456 12.7364 25.8934 12.7364C25.6412 12.7364 25.4349 12.705 25.4349 12.6667C25.4349 12.535 26.7402 11.3344 27.2761 10.9732C28.8562 9.90825 30.6463 9.3837 32.4356 9.39781L32.4356 9.39781ZM24.8419 14.0857C25.8075 14.0826 26.8646 14.1815 27.5649 14.3648C33.3899 15.8896 36.7741 22.0345 34.9409 27.7575L34.6843 28.5585H33.2224C32.4182 28.5585 31.6991 28.5819 31.6242 28.6107C31.274 28.7451 31.2425 29.013 31.2398 31.8155C31.2398 32.2149 31.2356 32.4785 31.2356 32.7702V33.271C31.2245 34.359 31.1913 34.5508 31.0938 34.6713C30.7955 35.0395 30.3985 35.1289 29.9927 34.9191C29.6562 34.7451 29.5798 34.5617 29.564 33.271H29.5599V32.7696C29.5599 32.6658 29.5599 32.5766 29.5599 32.4615V30.5653L29.3041 30.3096C29.0903 30.0957 29.0044 30.0625 28.7821 30.107C28.6357 30.1364 28.4384 30.2308 28.3436 30.3173C27.9406 30.6848 27.6076 30.7883 26.8247 30.7885C26.1559 30.7886 26.0229 30.7626 25.6886 30.5653C25.4802 30.4424 25.218 30.2436 25.1058 30.1235C24.836 29.8347 24.3647 29.8226 24.106 30.0979L23.9248 30.2908L23.9145 32.7682H23.8765C23.8966 32.7682 23.9128 32.8799 23.9128 33.0187C23.9128 33.1575 23.8967 33.2692 23.8765 33.2692H23.9128L23.902 35.8698L23.8792 41.449L23.6043 41.6943C23.2886 41.9762 22.8924 42.0185 22.5845 41.8028C22.1494 41.4983 22.1537 41.5624 22.1537 35.0142V33.2692H22.1899C22.1698 33.2692 22.1537 33.1575 22.1537 33.0187C22.1537 32.8799 22.1698 32.7682 22.1899 32.7682H22.1537V28.9246L21.9591 28.7415C21.7662 28.5601 21.7339 28.5585 18.5646 28.5585H15.3652L15.1007 27.6958C14.7304 26.4876 14.6404 25.9012 14.6351 24.6451C14.6276 22.9427 14.9287 21.5651 15.6342 20.0734C16.1623 18.9568 16.6905 18.1987 17.5843 17.2746C19.2012 15.6028 20.9978 14.6378 23.3005 14.2043C23.7174 14.1258 24.264 14.0875 24.8434 14.0858L24.8419 14.0857ZM40.4785 14.3863C40.6782 14.7609 40.836 15.0922 40.836 15.1628C40.836 15.2037 40.5046 15.1619 40.0995 15.0702C40.0329 15.0551 39.9674 15.0413 39.9016 15.0285L40.4785 14.3863ZM37.6648 16.2373C38.3457 16.2289 39.0317 16.2641 39.4895 16.3459C41.6975 16.7405 43.4793 17.6983 45.1283 19.3773C46.8184 21.098 47.7734 23.0248 48.0806 25.3332C48.1812 26.0895 48.1547 28.2756 48.0426 28.4569C47.9945 28.5349 46.5972 28.5585 42.0594 28.5585H36.139L36.3405 27.8259C37.0789 25.142 36.9043 22.4396 35.8261 19.8691C35.5002 19.0921 34.8947 18.0408 34.3996 17.3924C34.2366 17.1789 34.1032 16.9736 34.1032 16.9358C34.1032 16.8478 34.9531 16.5856 35.8705 16.3908C36.3078 16.2979 36.9838 16.2457 37.6648 16.2373H37.6648ZM21.2347 16.8002C21.209 16.8007 21.1834 16.8031 21.1581 16.8074C21.1581 16.8074 20.7598 16.8815 20.2272 17.1543C19.6946 17.4271 18.9853 17.9064 18.235 18.7293C16.6952 20.4181 16.3477 22.5797 16.3477 22.5797C16.3254 22.7131 16.357 22.8498 16.4355 22.9599C16.514 23.07 16.633 23.1445 16.7663 23.1669C16.8996 23.1892 17.0363 23.1577 17.1463 23.0794C17.2564 23.0011 17.3309 22.8823 17.3535 22.7491C17.3535 22.7491 17.6923 20.8385 18.9886 19.4167C19.6564 18.6843 20.263 18.2823 20.6923 18.0624C21.1216 17.8425 21.3308 17.8125 21.3308 17.8125C21.4641 17.7896 21.5829 17.7147 21.661 17.6042C21.739 17.4938 21.77 17.3568 21.7471 17.2235C21.7264 17.1033 21.6633 16.9946 21.5693 16.9169C21.4753 16.8393 21.3566 16.7979 21.2347 16.8003L21.2347 16.8002ZM14.497 29.9051H17.6516H20.806V31.2936V32.6824H17.9057C15.0426 32.6824 15.0033 32.6798 14.8362 32.5007C14.4688 32.1064 14.2461 30.8025 14.4323 30.1364L14.497 29.9051ZM32.5882 29.9051H41.0013H49.4145L49.5227 30.0943C49.5882 30.2089 49.6282 30.5542 49.6247 30.9689C49.62 31.5507 49.5813 31.7284 49.3721 32.1472L49.1258 32.6401L40.9137 32.6617C36.3969 32.6735 32.6759 32.6576 32.6448 32.6267C32.6135 32.5957 32.5882 31.9707 32.5882 31.2378L32.5882 29.9051ZM25.3331 31.9386C25.3697 31.9326 25.4268 31.9596 25.5148 32.0068C25.9925 32.2625 27.2067 32.2807 28.0226 32.0444C28.1972 31.9938 28.212 32.0165 28.212 32.336V32.6822H26.7392H25.2663V32.3036C25.2663 32.0499 25.2717 31.9485 25.3331 31.9386L25.3331 31.9386ZM16.6439 34.0286H17.0442H18.9217H20.7989L20.8244 37.8367C20.8472 41.2144 20.8663 41.6795 20.9935 41.9504C21.2045 42.3996 21.5314 42.7548 21.9726 43.0142C22.3104 43.2127 22.455 43.244 23.0368 43.244C23.6197 43.244 23.763 43.213 24.1037 43.0127C24.3202 42.8854 24.6146 42.6392 24.7582 42.4656C25.2477 41.8738 25.267 41.6923 25.267 37.6742V34.0286H26.7398H28.2126V34.3442C28.2126 35.0994 28.9976 36.085 29.7666 36.3003C30.2329 36.4309 30.9297 36.3791 31.3382 36.1839C32.0284 35.854 32.5881 35.0366 32.5881 34.3581V34.0286H39.793C44.743 34.0286 46.343 34.0377 46.7915 34.0941L46.9474 34.0716H47.3746C46.4339 35.7627 44.5294 39.2658 41.9724 44.0162C40.0952 47.5039 38.29 50.8455 37.9827 51.4007C35.3794 56.1039 33.7907 58.4147 32.8175 59.2061C32.702 59.3 32.4653 59.4495 32.2594 59.5555C32.0384 59.708 31.8858 59.6261 31.6791 59.5184C30.8795 59.097 29.7824 57.8168 28.1181 55.0325C26.8606 52.929 25.7622 50.9356 22.2803 44.4334C20.8177 41.7021 19.2596 38.8184 18.0296 36.5594C17.4785 35.5473 17.0255 34.7211 16.6438 34.029L16.6439 34.0286ZM43.1728 36.5009C43.0674 36.5033 42.9644 36.5328 42.8737 36.5865C42.7829 36.6402 42.7076 36.7164 42.6549 36.8078L41.4683 38.8629C41.387 39.0039 41.3651 39.1713 41.4073 39.3284C41.4494 39.4855 41.5522 39.6195 41.6931 39.7008C41.834 39.782 42.0014 39.804 42.1586 39.7619C42.3157 39.7198 42.4496 39.617 42.531 39.4762L43.7174 37.421C43.7987 37.2801 43.8207 37.1126 43.7786 36.9554C43.7365 36.7983 43.6337 36.6643 43.4928 36.5829C43.3956 36.5269 43.2849 36.4985 43.1728 36.5009V36.5009ZM40.8653 40.472C40.751 40.4725 40.6389 40.503 40.5401 40.5604C40.4414 40.6178 40.3593 40.7 40.3023 40.799L35.5629 49.008C35.5199 49.0823 35.4919 49.1644 35.4806 49.2496C35.4694 49.3347 35.475 49.4212 35.4972 49.5042C35.5194 49.5871 35.5577 49.6649 35.6099 49.7331C35.6622 49.8012 35.7273 49.8584 35.8017 49.9014C35.876 49.9443 35.9581 49.9722 36.0432 49.9835C36.1283 49.9947 36.2148 49.9891 36.2978 49.9669C36.3807 49.9447 36.4585 49.9064 36.5266 49.8541C36.5947 49.8019 36.6519 49.7367 36.6948 49.6623L41.4345 41.4525C41.4774 41.3781 41.5053 41.296 41.5165 41.2109C41.5277 41.1257 41.522 41.0392 41.4997 40.9563C41.4775 40.8733 41.4391 40.7956 41.3868 40.7275C41.3345 40.6594 41.2692 40.6022 41.1948 40.5593C41.0946 40.5016 40.9809 40.4714 40.8653 40.472V40.472Z" fill="#810331"/>
<path d="M43.1861 37.1145L41.9997 39.1694Z" fill="#B650A0"/>
<path d="M40.8683 41.1257L36.1286 49.3352Z" fill="#B650A0"/>
</svg>
