<svg width="80" height="80" viewBox="0 0 80 80" fill="none" xmlns="http://www.w3.org/2000/svg">
<circle cx="40" cy="40" r="40" fill="#141927"/>
<path d="M36.5002 39.996L61.5002 54.316C61.7011 54.4368 61.9306 54.5019 62.165 54.5046C62.3994 54.5073 62.6303 54.4475 62.8339 54.3314C63.0376 54.2154 63.2066 54.0471 63.3237 53.8441C63.4408 53.641 63.5018 53.4104 63.5002 53.176V26.796C63.5032 26.5612 63.443 26.3299 63.3259 26.1264C63.2088 25.9228 63.0392 25.7545 62.8347 25.639C62.6303 25.5234 62.3986 25.465 62.1638 25.4698C61.929 25.4745 61.6998 25.5423 61.5002 25.666L36.5002 39.996Z" fill="#31CB9E"/>
<path d="M60.9702 19.326L43.8802 6.75601C43.7026 6.62023 43.4942 6.53034 43.2736 6.49428C43.0529 6.45823 42.8268 6.47713 42.6152 6.54932C42.4036 6.6215 42.2131 6.74473 42.0604 6.90812C41.9078 7.0715 41.7978 7.26999 41.7402 7.48601L35.5002 35.486L60.8202 21.486C61.0129 21.3869 61.1767 21.2398 61.296 21.0589C61.4152 20.878 61.4857 20.6694 61.5008 20.4533C61.5159 20.2371 61.475 20.0208 61.382 19.8251C61.2891 19.6293 61.1473 19.4609 60.9702 19.336" fill="#31CB9E"/>
<path d="M43.8602 73.226L60.9702 60.656C61.1473 60.5295 61.2893 60.3599 61.3826 60.1632C61.4759 59.9665 61.5175 59.7493 61.5035 59.5321C61.4895 59.3149 61.4203 59.1048 61.3025 58.9218C61.1847 58.7387 61.0221 58.5887 60.8302 58.486L35.5002 44.486L41.7402 72.486C41.792 72.7036 41.897 72.9048 42.0458 73.0718C42.1946 73.2387 42.3825 73.3661 42.5927 73.4424C42.8029 73.5188 43.0287 73.5417 43.25 73.5091C43.4712 73.4766 43.6809 73.3896 43.8602 73.256" fill="#31CB9E"/>
<path d="M30.0002 39.486L36.5002 9.07601C36.5499 8.82409 36.5232 8.56309 36.4237 8.32642C36.3241 8.08974 36.1562 7.88816 35.9414 7.74747C35.7266 7.60679 35.4747 7.5334 35.218 7.5367C34.9612 7.54 34.7113 7.61985 34.5002 7.76601L17.8502 20.536C17.4286 20.8595 17.0874 21.2759 16.8533 21.7529C16.6191 22.23 16.4983 22.7546 16.5002 23.286V55.686C16.4905 56.2258 16.6075 56.7604 16.842 57.2467C17.0765 57.733 17.4218 58.1575 17.8502 58.486L34.4202 71.206C34.6313 71.3522 34.8812 71.432 35.138 71.4353C35.3947 71.4386 35.6466 71.3652 35.8614 71.2245C36.0762 71.0839 36.2441 70.8823 36.3437 70.6456C36.4432 70.4089 36.4699 70.1479 36.4202 69.896L30.0002 39.486Z" fill="#31CB9E"/>
</svg>
