<svg width="101" height="101" viewBox="0 0 101 101" fill="none" xmlns="http://www.w3.org/2000/svg">
<circle cx="50.9472" cy="50.7088" r="50" fill="#050912"/>
<path d="M85.838 45.9809L75.3043 35.5902L75.0786 35.3946C73.3983 33.7758 71.1507 32.8794 68.8175 32.8977C66.4843 32.916 64.251 33.8474 62.5962 35.4924L50.9867 47.1396L39.3395 35.4924C37.7071 33.8666 35.5083 32.9363 33.2047 32.897C30.9011 32.8578 28.6719 33.7125 26.985 35.2818C26.8434 35.3695 26.7121 35.473 26.5938 35.5902L16.0601 45.9885C14.3899 47.6547 13.45 49.9162 13.4472 52.2754C13.4444 54.6347 14.3789 56.8984 16.0451 58.5686C17.7113 60.2389 19.9728 61.1788 22.3321 61.1816C24.6913 61.1844 26.955 60.2499 28.6253 58.5837L32.9742 54.31L44.6138 65.9271C46.2027 67.5064 48.3274 68.4304 50.566 68.5154C52.8046 68.6004 54.9934 67.8403 56.6974 66.3861C56.9431 66.2728 57.1672 66.1175 57.3595 65.9271L68.9616 54.3251L73.2653 58.5686C74.9346 60.2359 77.1977 61.1717 79.557 61.1703C81.9162 61.1689 84.1783 60.2303 85.8455 58.5611C87.5127 56.8919 88.4486 54.6287 88.4472 52.2695C88.4458 49.9102 87.5072 47.6482 85.838 45.9809ZM65.8843 38.7353C66.6952 37.9353 67.7886 37.4868 68.9277 37.4868C70.0669 37.4868 71.1602 37.9353 71.9712 38.7353C72.7771 39.5447 73.2295 40.6403 73.2295 41.7825C73.2295 42.9247 72.7771 44.0204 71.9712 44.8298L59.4888 57.3046C59.0954 55.8107 58.3171 54.4461 57.2316 53.3469L54.2371 50.4201L65.8843 38.7353ZM25.42 55.2882C24.6119 56.0936 23.5175 56.5458 22.3766 56.5458C21.2356 56.5458 20.1412 56.0936 19.3331 55.2882C18.53 54.4804 18.0791 53.3875 18.0791 52.2484C18.0791 51.1093 18.53 50.0165 19.3331 49.2087L24.4871 44.1074C24.8828 45.5938 25.661 46.9505 26.7443 48.0425L29.7539 51.0521L25.42 55.2882ZM47.8642 62.6843L30.0398 44.8222C29.6401 44.4226 29.3231 43.9481 29.1068 43.4259C28.8905 42.9037 28.7791 42.344 28.7791 41.7788C28.7791 40.6372 29.2326 39.5425 30.0398 38.7353C30.847 37.9281 31.9417 37.4746 33.0833 37.4746C33.6485 37.4746 34.2082 37.586 34.7304 37.8023C35.2526 38.0186 35.7271 38.3356 36.1267 38.7353L53.9511 56.5973C54.7511 57.4083 55.1996 58.5017 55.1996 59.6408C55.1996 60.7799 54.7511 61.8733 53.9511 62.6843V62.6843C53.1402 63.4842 52.0468 63.9327 50.9077 63.9327C49.7685 63.9327 48.6752 63.4842 47.8642 62.6843ZM82.6026 55.3182C82.2022 55.7193 81.7266 56.0375 81.2031 56.2546C80.6796 56.4717 80.1184 56.5835 79.5516 56.5835C78.9849 56.5835 78.4237 56.4717 77.9002 56.2546C77.3767 56.0375 76.9011 55.7193 76.5007 55.3182L72.1743 51.0822L75.1839 48.0726C76.2624 46.9918 77.0404 45.6485 77.4412 44.1752L82.5575 49.2313C83.369 50.0334 83.8293 51.1245 83.8378 52.2654C83.8463 53.4064 83.4021 54.5042 82.6026 55.3182V55.3182Z" fill="url(#paint0_linear)"/>
<defs>
<linearGradient id="paint0_linear" x1="13.4869" y1="50.7135" x2="88.4488" y2="50.7135" gradientUnits="userSpaceOnUse">
<stop offset="0.13" stop-color="#CA1098"/>
<stop offset="1" stop-color="#714ED2"/>
</linearGradient>
</defs>
</svg>
