<svg width="269" height="268" viewBox="0 0 269 268" fill="none" xmlns="http://www.w3.org/2000/svg">
<path d="M147.874 147.732C146.195 144.375 142.838 140.178 139.48 136.82C138.641 137.66 137.801 140.178 137.801 141.017C136.962 144.375 138.641 144.375 141.998 145.214C143.677 145.214 145.356 146.054 147.874 147.732Z" fill="url(#paint0_linear)"/>
<path fill-rule="evenodd" clip-rule="evenodd" d="M148.714 0.839394C95.8323 5.87576 53.0232 46.1667 44.6293 98.2091C47.9869 98.2091 50.505 97.3697 51.3444 97.3697C51.3444 92.3333 53.0232 83.1 58.899 77.2242C75.6869 39.4515 112.62 13.4303 156.268 13.4303C215.026 13.4303 262.871 61.2757 262.871 120.873C262.871 165.361 236.011 203.133 198.238 219.921C226.777 202.294 246.084 169.558 246.084 132.624C246.084 76.3848 200.756 30.2182 144.517 30.2182C108.423 30.2182 77.3656 48.6848 59.7384 77.2242C61.4172 75.5454 63.9353 74.706 66.4535 74.706C65.6141 83.9394 72.3293 86.4576 78.205 81.4212C80.7232 76.3848 84.0808 71.3485 89.1172 67.9909C94.9929 64.6333 102.547 63.7939 108.423 63.7939C113.459 63.7939 118.496 65.4727 122.693 67.1515C121.853 63.7939 116.817 59.597 115.977 59.597C128.568 52.8818 149.553 61.2757 152.071 75.5454C152.911 68.8303 152.071 62.1151 152.071 62.1151C164.662 67.1515 165.502 84.7788 164.662 90.6545L181.45 75.5454L165.502 111.639C166.341 112.479 166.341 114.158 167.18 115.836L168.02 116.676C168.859 119.194 169.699 120.873 170.538 123.391C171.377 125.07 172.217 126.748 173.056 129.267C173.056 130.945 172.217 133.464 171.377 136.821C170.538 140.179 169.699 143.536 169.699 145.215C170.538 148.573 170.538 151.93 171.377 155.288C172.217 160.324 173.896 165.361 175.574 168.718C176.414 170.397 176.414 172.076 177.253 172.915C182.29 177.112 182.29 184.667 182.29 188.024C182.29 193.9 173.896 199.776 170.538 202.294C169.699 202.294 169.699 203.133 168.859 203.133C166.341 204.812 163.823 205.651 162.144 206.491C160.465 207.33 158.787 207.33 157.108 207.33C152.071 207.33 139.48 199.776 137.802 197.258C136.962 196.418 136.123 192.221 135.284 188.024C134.444 184.667 133.605 181.309 132.765 178.791C131.087 174.594 129.408 173.755 127.729 172.076C125.211 170.397 122.693 168.718 118.496 162.842C116.817 166.2 112.62 176.273 110.102 189.703C109.262 193.9 109.262 200.615 109.262 209.009C109.262 213.206 109.262 217.403 108.423 221.6C124.371 229.155 141.159 234.191 159.626 234.191C206.632 234.191 246.923 205.651 265.39 165.361C251.12 224.118 199.077 267.767 136.123 267.767C63.096 268.606 3.49902 208.17 3.49902 134.303C3.49902 60.4364 63.096 0 136.123 0C140.32 0 144.517 0 148.714 0.839394ZM43.7899 104.085C43.7899 107.442 42.9505 111.639 42.9505 114.997C45.4687 114.158 48.8263 114.158 51.3444 114.158H50.505C47.9869 114.997 45.4687 115.836 42.9505 116.676V117.515C42.9505 127.588 43.7899 136.821 46.3081 146.055C46.3081 145.215 46.3081 144.376 46.3081 142.697C46.3081 141.858 47.9869 133.464 55.5414 122.551C55.5414 123.391 55.5414 125.07 54.702 125.909C53.8626 130.106 53.0232 134.303 54.702 139.339C54.702 135.142 57.2202 122.551 65.6141 118.355C63.096 122.551 61.4172 135.142 63.9354 138.5C63.9354 131.785 68.1323 125.07 74.0081 120.873C78.205 117.515 99.1903 105.764 99.1903 105.764C99.1903 105.764 94.9929 123.391 104.226 125.07C102.547 120.873 105.065 113.318 109.262 108.282C110.941 106.603 113.459 104.924 115.138 104.085V103.245C114.299 99.0485 114.299 94.0121 115.977 90.6545C117.656 92.3333 121.014 94.0121 124.371 94.8515C127.729 95.6909 131.087 97.3697 134.444 99.0485C136.962 100.727 138.641 104.085 140.32 107.442L141.999 109.961L142.838 111.639V110.8L156.268 97.3697C159.626 91.4939 160.465 76.3848 153.75 69.6697C153.75 73.8667 153.75 92.3333 147.035 95.6909C152.071 83.9394 147.035 62.1151 121.853 62.1151C126.05 65.4727 129.408 71.3485 131.087 74.706C136.123 75.5454 136.962 78.0636 138.641 79.7424L137.802 78.903C135.284 76.3848 127.729 68.8303 110.102 68.8303C104.226 68.8303 98.3503 69.6697 93.3141 72.1879C101.708 69.6697 110.941 74.706 118.496 79.7424C117.656 79.7424 115.977 78.903 115.138 78.0636C110.102 76.3848 104.226 73.0273 95.8323 74.706C91.6353 75.5454 89.1172 78.0636 85.7596 81.4212C84.0808 83.1 82.402 84.7788 79.8838 86.4576C74.8475 88.9757 68.1323 88.9757 65.6141 83.9394C63.9354 83.1 63.096 81.4212 63.096 79.7424C61.4172 81.4212 60.5778 83.1 59.7384 84.7788C57.2202 88.1364 56.3808 93.1727 57.2202 97.3697C59.7384 97.3697 62.2566 97.3697 64.7747 97.3697C67.2929 97.3697 69.8111 98.2091 72.3293 97.3697C75.6869 96.5303 79.8838 95.6909 82.402 94.0121C83.2414 93.1727 84.9202 92.3333 85.7596 91.4939C84.9202 92.3333 84.9202 93.1727 84.0808 94.0121C81.5626 97.3697 78.205 99.0485 74.0081 99.8879C70.6505 100.727 67.2929 100.727 63.9354 99.8879C61.4172 99.8879 58.0596 99.0485 55.5414 99.8879C53.8626 99.8879 52.1838 100.727 50.505 101.567C48.8263 102.406 46.3081 103.245 43.7899 104.085ZM164.662 96.5303L173.056 88.1364L157.947 119.194C156.268 120.033 153.75 119.194 151.232 117.515C149.553 115.836 147.874 114.158 148.714 112.479L152.071 109.121C152.071 109.961 152.911 110.8 153.75 111.639C155.429 113.318 157.108 114.158 159.626 113.318C158.787 113.318 157.947 113.318 157.947 112.479C155.429 111.639 154.59 109.121 153.75 107.442L158.787 102.406C159.626 104.085 161.305 105.764 163.823 104.924C162.144 104.924 160.465 102.406 159.626 100.727L162.984 96.5303C163.823 97.3697 164.662 97.3697 165.502 97.3697C165.502 98.2091 164.662 97.3697 164.662 96.5303ZM136.962 145.215C135.284 143.536 135.284 141.858 135.284 139.339C135.284 137.661 136.123 135.142 137.802 133.464C136.123 131.785 133.605 130.945 131.087 130.945C136.962 129.267 141.159 131.785 145.356 135.982C147.874 138.5 151.232 145.215 152.071 147.733C152.911 150.251 157.947 148.573 157.947 148.573C157.108 150.251 154.59 151.93 152.071 151.93C150.393 151.93 150.393 151.091 149.553 150.251V149.412C147.035 148.573 144.517 147.733 141.999 146.894C139.48 146.894 137.802 146.055 136.962 145.215ZM168.02 186.345C167.18 181.309 166.341 177.951 163.823 177.951C163.823 177.951 164.662 176.273 166.341 177.112C168.859 178.791 168.02 182.988 168.02 186.345ZM169.699 187.185C170.538 182.988 168.859 173.755 164.662 173.755C162.144 173.755 160.465 174.594 159.626 175.433L158.787 176.273C158.787 175.433 158.787 175.433 158.787 174.594C158.787 170.397 157.108 167.039 155.429 162.842C154.59 161.164 154.59 160.324 153.75 158.645C157.108 162.003 159.626 166.2 161.305 170.397C162.144 169.558 163.823 169.558 165.502 171.236C172.217 174.594 172.217 183.827 169.699 187.185ZM160.465 196.418C155.429 194.739 145.356 190.542 145.356 188.024C145.356 186.345 145.356 183.827 147.035 182.988C147.874 185.506 150.393 187.185 153.75 188.864C153.75 188.864 149.553 184.667 149.553 181.309H150.393C152.071 181.309 152.911 183.827 153.75 186.345C154.59 189.703 157.108 193.9 160.465 196.418ZM146.196 151.091C142.838 152.77 137.802 151.93 135.284 150.251C131.926 148.573 130.247 144.376 130.247 141.018C131.087 141.858 131.087 142.697 131.087 143.536C131.926 146.055 133.605 147.733 136.123 149.412C137.802 150.251 141.159 151.091 143.677 151.091C144.517 151.091 145.356 151.091 146.196 151.091ZM75.6869 180.47C75.6869 182.988 75.6869 184.667 75.6869 186.345C73.1687 182.988 72.3293 178.791 73.1687 174.594C74.8475 151.93 93.3141 136.821 94.1535 135.982C82.402 151.93 78.205 164.521 76.5263 172.915C75.6869 174.594 75.6869 177.951 75.6869 180.47Z" fill="url(#paint1_linear)"/>
<path d="M215.865 132.623C215.865 171.235 194.041 205.65 162.984 222.438C203.274 213.205 232.653 177.111 232.653 134.302C232.653 94.8503 207.471 61.2745 173.056 48.6836C199.077 67.1503 215.865 98.2078 215.865 132.623Z" fill="url(#paint2_linear)"/>
<path d="M189.844 130.945C189.844 130.945 189.005 123.39 186.486 120.872C183.968 118.354 176.414 117.514 176.414 117.514C176.414 117.514 183.129 116.675 186.486 114.157C189.005 111.639 189.844 104.084 189.844 104.084C189.844 104.084 190.683 111.639 193.202 114.157C195.72 116.675 203.274 117.514 203.274 117.514C203.274 117.514 196.559 118.354 193.202 120.872C189.844 123.39 189.844 130.945 189.844 130.945Z" fill="url(#paint3_linear)"/>
<path d="M120.175 207.331C122.693 209.849 122.693 214.886 122.693 214.886C122.693 214.886 122.693 209.849 125.211 207.331C127.729 204.813 132.766 204.813 132.766 204.813C132.766 204.813 127.729 204.813 125.211 202.295C122.693 199.777 122.693 194.74 122.693 194.74C122.693 194.74 122.693 199.777 120.175 202.295C117.657 204.813 112.62 204.813 112.62 204.813C112.62 204.813 118.496 204.813 120.175 207.331Z" fill="url(#paint4_linear)"/>
<path d="M199.077 151.09C199.077 151.09 199.077 147.732 197.398 146.054C195.72 144.375 192.362 144.375 192.362 144.375C192.362 144.375 195.72 144.375 197.398 142.696C199.077 141.017 199.077 137.66 199.077 137.66C199.077 137.66 199.077 141.017 200.756 142.696C202.435 144.375 205.792 144.375 205.792 144.375C205.792 144.375 202.435 144.375 200.756 146.054C199.917 147.732 199.077 151.09 199.077 151.09Z" fill="url(#paint5_linear)"/>
<defs>
<linearGradient id="paint0_linear" x1="142.731" y1="136.82" x2="142.731" y2="147.732" gradientUnits="userSpaceOnUse">
<stop/>
<stop offset="0.5" stop-color="#1E4169"/>
<stop offset="1" stop-color="#3A619D"/>
</linearGradient>
<linearGradient id="paint1_linear" x1="134.444" y1="0" x2="134.444" y2="267.775" gradientUnits="userSpaceOnUse">
<stop/>
<stop offset="0.5" stop-color="#1E4169"/>
<stop offset="1" stop-color="#3A619D"/>
</linearGradient>
<linearGradient id="paint2_linear" x1="197.818" y1="48.6836" x2="197.818" y2="222.438" gradientUnits="userSpaceOnUse">
<stop/>
<stop offset="0.5" stop-color="#1E4169"/>
<stop offset="1" stop-color="#3A619D"/>
</linearGradient>
<linearGradient id="paint3_linear" x1="189.844" y1="104.084" x2="189.844" y2="130.945" gradientUnits="userSpaceOnUse">
<stop/>
<stop offset="0.5" stop-color="#1E4169"/>
<stop offset="1" stop-color="#3A619D"/>
</linearGradient>
<linearGradient id="paint4_linear" x1="122.693" y1="194.74" x2="122.693" y2="214.886" gradientUnits="userSpaceOnUse">
<stop/>
<stop offset="0.5" stop-color="#1E4169"/>
<stop offset="1" stop-color="#3A619D"/>
</linearGradient>
<linearGradient id="paint5_linear" x1="199.077" y1="137.66" x2="199.077" y2="151.09" gradientUnits="userSpaceOnUse">
<stop/>
<stop offset="0.5" stop-color="#1E4169"/>
<stop offset="1" stop-color="#3A619D"/>
</linearGradient>
</defs>
</svg>
