<svg width="101" height="101" viewBox="0 0 101 101" fill="none" xmlns="http://www.w3.org/2000/svg">
<circle cx="50.9472" cy="50.7088" r="50" fill="#25272C"/>
<path d="M20.7359 69.8593H81.1585V79.3596H20.7359V69.8593Z" fill="white"/>
<path d="M21.1128 30.2472C21.1128 27.7769 20.962 25.3809 20.7359 22.9073H31.4994L31.8732 27.9319C33.0698 26.2301 35.9908 22.058 43.5821 22.058C52.3009 22.058 54.779 27.5476 55.5171 29.3979C58.6579 23.1398 63.7837 22.1355 67.694 22.1355C75.3575 22.1355 78.4386 26.8501 79.2646 28.3937C81.2936 31.794 81.1491 36.5053 81.1491 39.9056V61.2762H69.9585V38.995C69.9585 34.8229 69.3586 30.1859 63.5732 30.1859C56.8833 30.1859 56.7326 36.599 56.7326 42.3953V61.2762H45.5356V38.7463C45.5356 35.7335 45.4603 30.1697 39.298 30.1697C32.3098 30.1697 32.3098 36.3535 32.3098 38.995V61.2762H21.1128V30.2472Z" fill="white"/>
</svg>
