<svg width="128" height="128" viewBox="0 0 128 128" fill="none" xmlns="http://www.w3.org/2000/svg">
<path fill-rule="evenodd" clip-rule="evenodd" d="M115 25.4C105.3 13 91.1 5.1 75.4 5.1C45 5.1 22.7 33.4 22.7 64C22.7 85.3 36.9 101.3 52.6 101.3C54.1 101.3 55.5 101.2 57 100.9C46.4 93.2 39.7 79.2 39.7 64C39.7 39.8 56.1 20.9 75.4 20.9C96.5 20.9 111.1 41.8 111.1 64C111 80.4 105.2 96.7 94.9 108.7C85.9 119.2 74.3 125.8 61.5 127.9C61.5 127.9 62.6 128 64 128C99.3 128 128 99.3 128 64C128 49.5 123.2 36.1 115 25.4ZM105.3 64C105.3 42.7 91.1 26.7 75.4 26.7C73.9 26.7 72.5 26.8 71 27.1C81.6 34.8 88.3 48.8 88.3 64C88.3 88.2 71.9 107.1 52.6 107.1C31.5 107.1 16.9 86.2 16.9 64C17 47.6 22.8 31.3 33.1 19.3C42.1 8.8 53.7 2.2 66.5 0.1C66.5 0.1 65.4 0 64 0C28.7 0 0 28.7 0 64C0 78.5 4.8 91.9 13 102.6C22.7 115 36.9 122.8 52.6 122.8C83 122.9 105.3 94.6 105.3 64Z" fill="#0089DB"/>
</svg>
