<svg width="711" height="711" viewBox="0 0 711 711" fill="none" xmlns="http://www.w3.org/2000/svg">
<circle cx="355.901" cy="355.99" r="355" fill="#06070A"/>
<path d="M224.953 379.974L238.181 280.587L123.443 200.936L228.277 236.446L253.036 198.46L343.439 142.365L542.708 252.15L553.036 419.658L464.259 543.025L394.087 553.777L430.376 487.354V423.407L403.99 373.466L377.181 355.711L335.941 398.224V443.213L303.755 473.348L262.868 478.3L244.759 488.557L215.049 479.078L202.67 434.513L224.953 403.176V379.974Z" fill="white"/>
<path d="M408.164 200.087C386.306 195.56 362.397 196.762 362.397 196.762C362.397 196.762 354.545 233.051 305.877 242.6C306.231 242.6 370.178 264.458 408.164 200.087Z" fill="#94A6C3"/>
<path d="M427.971 529.372C454.356 508.717 474.163 480.28 483.288 448.094C483.712 446.892 487.391 444.77 489.867 443.143C493.969 440.667 498.143 438.616 498.921 435.291C500.548 425.812 501.397 415.909 501.397 406.005C501.397 402.327 497.648 398.578 493.969 394.899C491.069 392.424 488.169 389.523 488.169 387.472C484.066 349.91 466.735 314.824 439.077 289.288L436.176 292.188C462.986 317.371 480.317 351.608 484.066 387.896C484.49 391.221 487.744 394.475 491.069 397.8C493.969 400.276 497.294 404.025 497.294 405.652C497.294 415.13 496.445 424.609 494.818 434.088C494.394 435.715 490.715 437.413 487.815 439.04C483.712 441.091 479.963 443.143 479.185 446.467C469.282 481.554 446.575 512.112 416.44 531.919C421.817 520.389 438.723 482.827 447.777 463.798L446.15 402.751L393.734 352.032L364.024 356.135L331.413 408.976C331.413 408.976 346.693 428.359 325.188 451.065C304.179 473.348 287.626 478.3 287.626 478.3L272.347 470.023C276.874 464.223 285.999 455.593 293.003 449.792C304.957 439.889 316.912 439.04 316.912 428.359C317.407 406.005 293.427 412.16 293.427 412.16L284.726 420.436L281.048 450.995L262.939 473.702L260.887 473.277L231.177 466.699C231.177 466.699 249.357 457.22 252.257 446.467C255.158 436.14 246.457 401.902 246.032 399.851C246.457 400.276 254.733 407.279 258.412 418.809C264.99 400.629 273.691 383.298 276.167 381.671C278.643 380.044 312.031 362.289 312.031 362.289L300.925 391.575L309.202 387.047L329.008 338.38C329.008 338.38 348.39 328.901 362.821 328.901C388.782 328.476 427.193 296.715 409.862 239.771C414.813 241.822 500.619 284.76 515.474 368.939C526.58 433.664 489.867 494.286 427.971 529.372Z" fill="#94A6C3"/>
<path d="M329.786 209.141C339.265 197.965 335.587 181.483 335.587 181.483L307.928 222.369C307.504 222.369 317.761 222.794 329.786 209.141Z" fill="#1B314F"/>
<path d="M236.907 432.391L240.232 415.909C240.232 415.909 226.58 439.818 225.377 443.143C224.104 446.892 226.226 453.471 231.531 453.046C236.907 452.622 243.486 444.77 243.486 439.04C243.486 431.612 236.907 432.391 236.907 432.391Z" fill="#1B314F"/>
<path d="M482.015 169.952C482.015 169.952 502.67 170.801 524.104 173.277C475.79 135.291 430.022 124.185 392.885 124.185C341.741 124.185 307.079 145.265 304.957 146.467L321.086 120.86C321.086 120.86 256.714 114.635 234.007 182.756C228.206 168.325 222.901 147.245 222.901 147.245C222.901 147.245 189.442 176.602 205.146 225.27C166.735 211.263 111.913 191.81 109.791 191.457C106.891 191.032 106.042 192.306 106.042 192.306C106.042 192.306 105.193 193.508 107.669 195.63C112.267 199.238 198.921 263.256 217.949 275.635C213.847 290.49 213.847 297.493 217.949 304.496C223.75 313.975 224.104 318.927 223.326 325.93C222.477 332.933 215.049 393.626 213.422 401.054C211.795 408.481 194.464 434.866 195.243 442.718C196.091 450.57 206.773 483.959 216.322 487.708C223.326 490.184 240.656 495.56 252.187 495.56C256.289 495.56 260.039 494.711 261.666 493.084C268.669 486.93 270.72 485.656 275.672 485.656C276.096 485.656 276.521 485.656 276.874 485.656C278.926 485.656 281.402 486.081 284.302 486.081C290.88 486.081 299.581 484.807 305.735 479.078C314.79 470.023 330.494 457.644 335.445 451.844C341.67 443.992 344.924 433.31 343.297 422.558C342.024 412.655 347.4 403.954 353.625 395.324C361.477 384.996 375.908 366.463 375.908 366.463C404.415 387.826 422.17 420.436 422.17 456.724C422.17 521.096 366.075 573.089 296.752 573.089C285.999 573.089 275.742 571.886 265.415 569.41C297.176 580.516 323.986 584.265 345.915 584.265C392.531 584.265 417.289 567.359 417.289 567.359C417.289 567.359 408.659 578.535 394.582 591.268C395.007 591.268 395.007 591.268 395.007 591.268C472.182 580.516 509.744 516.993 509.744 516.993C509.744 516.993 506.844 537.649 503.165 551.655C605.806 474.48 588.475 377.922 588.051 374.668C588.9 375.871 599.228 388.25 604.533 394.899C621.086 224.845 482.015 169.952 482.015 169.952ZM323.986 441.516C322.359 443.567 315.356 449.792 310.404 454.319C305.452 458.847 300.076 463.374 295.974 467.547C294.347 469.174 291.022 470.023 286.07 470.023C284.443 470.023 282.746 470.023 281.543 470.023C280.694 470.023 279.916 470.023 279.067 470.023C278.218 470.023 277.794 470.023 277.44 470.023C276.167 470.023 274.964 470.023 273.691 470.023C279.916 461.747 298.025 442.789 304.25 438.686C311.677 433.735 315.427 428.783 310.829 420.153C306.301 411.452 294.347 413.574 294.347 413.574C294.347 413.574 301.35 410.674 307.575 410.674C299.723 408.623 289.819 410.674 285.292 415.201C280.34 419.728 281.189 435.857 279.138 446.114C277.086 456.866 270.083 462.242 259.331 472.145C253.531 477.521 249.428 479.148 246.103 479.148C239.1 477.946 230.824 475.824 225.023 473.772C220.92 468.396 214.696 450.641 213.069 443.213C214.271 439.111 219.223 430.41 221.699 425.458C226.65 415.979 229.551 410.603 230.399 405.652C232.026 398.649 237.402 355.286 239.454 337.177C244.83 344.18 252.257 355.781 250.56 363.209C262.514 346.302 253.884 329.75 249.711 323.171C246.032 316.592 241.081 303.364 245.184 289.358C249.286 275.352 264.141 236.517 264.141 236.517C264.141 236.517 269.093 245.218 276.096 243.52C283.099 241.893 339.619 156.866 339.619 156.866C339.619 156.866 354.898 190.254 338.77 214.659C322.288 238.993 306.16 243.52 306.16 243.52C306.16 243.52 328.867 247.623 349.876 232.343C358.506 252.574 366.782 273.584 367.207 276.484C365.933 279.384 349.452 318.997 347.825 321.473C346.976 322.322 341.246 323.949 337.072 324.798C330.069 326.849 325.966 328.123 324.269 329.325C321.369 331.801 308.14 368.09 301.986 385.845C294.559 387.896 287.131 392.07 281.755 400.276C284.655 398.224 293.71 396.951 300.359 396.173C306.16 395.748 323.844 405.227 328.442 422.982C328.442 423.407 328.442 423.407 328.442 423.831C329.362 430.339 327.311 436.564 323.986 441.516ZM285.221 446.467C288.97 441.091 288.546 432.037 288.97 429.137C289.395 426.236 290.173 420.86 293.498 420.082C296.822 419.233 304.674 420.507 304.674 426.236C304.674 431.612 298.874 432.815 294.771 436.564C291.8 439.394 285.999 445.619 285.221 446.467ZM449.829 367.595C453.932 346.585 454.356 328.406 453.153 313.551C469.211 334.984 479.114 361.016 482.015 387.826C482.439 391.15 485.693 394.404 489.018 397.729C491.918 400.205 495.243 403.529 495.243 405.581C495.243 415.06 494.394 424.539 492.767 434.088C492.342 435.291 488.664 437.413 485.764 439.04C481.661 441.091 477.912 443.143 477.134 446.467C468.079 478.229 448.626 506.312 422.665 526.118C461.005 486.081 479.539 420.011 449.829 367.595ZM423.868 529.797C450.678 509.141 471.333 480.28 480.388 447.67C480.812 446.467 484.49 444.345 486.966 442.718C491.069 440.667 495.243 438.191 496.021 434.866C497.648 425.388 498.497 415.484 498.497 405.581C498.497 401.902 494.747 398.153 491.069 394.475C489.018 391.999 485.693 389.099 485.693 387.047C482.368 356.913 470.414 328.476 451.88 304.921C443.604 255.404 410.64 240.125 409.791 239.7C410.64 240.973 432.074 271.886 417.219 308.175C401.939 344.888 362.75 339.158 359.426 339.512C356.101 339.512 343.368 355.993 327.24 386.552C325.188 385.703 316.488 383.652 306.584 385.35C314.012 364.694 325.188 335.409 327.24 332.933C328.089 332.084 334.243 330.457 338.416 329.254C346.268 327.203 349.947 325.93 351.22 324.303C352.069 323.03 356.172 313.551 360.274 303.647C364.024 303.647 373.502 302.798 374.281 302.374C375.129 301.525 382.981 281.365 382.981 278.889C382.981 276.838 366.853 236.8 360.699 221.52C363.599 218.196 366.499 214.093 369.329 209.566C453.932 218.691 520.001 290.49 520.001 377.498C520.001 444.345 480.812 502.563 423.868 529.797Z" fill="#1B314F"/>
<path d="M314.083 306.972C321.934 297.918 317.832 281.011 303.33 278.111C307.079 269.481 312.385 252.15 312.385 252.15C312.385 252.15 270.296 318.149 266.617 319.422C262.868 320.695 259.19 306.194 259.19 306.194C251.338 336.328 272.418 340.431 274.894 330.952C286.424 327.981 306.231 315.602 314.083 306.972Z" fill="#1B314F"/>
<path d="M278.148 323.03L299.581 286.317C299.581 286.317 311.96 292.541 305.735 302.445C297.954 313.975 278.148 323.03 278.148 323.03Z" fill="#FFD923"/>
<path d="M543.486 493.084C537.261 501.36 530.258 509.99 522.052 518.267C575.247 415.909 524.528 322.251 522.477 318.573C526.226 322.322 529.904 326.425 533.229 330.103C574.045 375.446 578.996 443.567 543.486 493.084Z" fill="#D82122"/>
<path d="M593.003 361.44C574.399 311.499 548.013 268.986 489.867 230.646C433.771 193.508 373.502 196.408 370.178 196.833C369.753 196.833 369.329 196.833 369.329 196.833C371.38 195.984 373.432 195.56 375.483 195.206C388.287 191.103 404.769 187.778 421.321 185.727C465.108 179.431 509.249 194.286 539.383 226.118C539.808 226.543 539.808 226.543 540.232 226.967C574.469 263.256 592.225 308.599 593.003 361.44Z" fill="#D82122"/>
<path d="M476.639 157.149C415.167 145.619 375.554 151.348 347.046 162.101C346.198 158.776 343.297 152.197 340.821 146.821C332.262 157.149 323.137 169.528 317.407 177.38C301.703 188.132 295.125 198.46 295.125 198.46C304.179 167.477 330.635 144.416 362.821 138.615C371.875 136.989 381.779 136.14 392.531 136.14C420.968 136.564 449.404 143.567 476.639 157.149Z" fill="#D82122"/>
<path d="M249.286 236.375C201.043 234.748 217.101 178.582 217.949 175.328C217.949 175.753 221.203 219.469 249.286 236.375Z" fill="#D82122"/>
<path d="M296.752 135.291C259.614 157.573 267.042 210.768 267.042 210.768C231.531 156.795 293.851 136.564 296.752 135.291Z" fill="#D82122"/>
<path d="M235.705 251.23C238.181 253.282 240.656 257.031 237.756 262.407C236.129 265.307 233.653 264.883 229.904 263.256C224.953 260.78 195.243 243.449 168.433 225.694C198.992 236.446 229.904 247.977 234.856 250.452C234.856 250.452 235.28 250.877 235.705 251.23Z" fill="white"/>
</svg>
