<svg width="711" height="711" viewBox="0 0 711 711" fill="none" xmlns="http://www.w3.org/2000/svg">
<path d="M254.634 307.51C258.007 307.74 261.868 307.298 265.719 307.006C269.766 306.7 273.789 305.933 277.624 304.55C279.991 303.696 282.182 302.308 283.118 299.832C284.837 295.278 285.22 290.485 283.873 285.839C281.775 278.613 276.482 273.739 270.748 269.276C265.76 265.393 260.115 263.834 253.955 264.875C243.329 266.67 232.51 276.086 231.207 287.16C230.632 292.032 230.357 296.687 233.168 301.078C235.059 304.036 237.031 306.51 240.926 306.824C245.323 307.179 249.711 307.565 254.634 307.51ZM455.312 307.577C457.702 307.747 461.494 307.27 465.286 307.025C468.648 306.808 471.831 306.04 473.878 302.843C476.751 298.358 477.934 293.49 477.206 288.266C475.933 279.112 470.59 272.698 462.854 268.169C456.672 264.55 450.069 263.404 443.132 265.905C439.095 267.361 435.844 270.068 432.79 272.936C427.384 278.012 423.251 283.831 422.641 291.589C422.08 298.715 424.971 303.012 431.72 305.004C438.972 307.142 446.416 307.414 455.312 307.577ZM491.88 338.522C491.868 334.027 491.932 329.504 490.518 325.198C488.73 319.752 489.194 319.681 483.834 320.152C476.491 320.8 469.917 323.899 463.434 327.137C454.23 331.734 445.506 337.162 436.943 342.834C430.013 347.424 422.821 351.692 416.828 357.55C412.092 362.179 407.859 367.166 406.791 374.064C406.46 376.198 407.168 377.451 409.466 378.006C411.634 378.529 413.812 378.965 416.087 378.961C424.623 378.946 432.956 377.429 441.184 375.421C451.775 372.837 462.062 369.317 471.779 364.283C478.235 360.936 484.333 357.098 489.274 351.645C490.571 350.211 491.53 348.752 491.5 346.659C491.462 343.949 491.739 341.234 491.88 338.522ZM221.392 337.824C221.493 339.739 221.853 342.998 221.778 346.247C221.708 349.284 223.187 351.313 225.196 353.25C233.523 361.277 243.741 366.004 254.367 370.009C261.273 372.614 268.349 374.635 275.562 376.224C282.793 377.819 290.074 378.974 297.481 379.18C300.127 379.252 302.757 378.959 305.298 378.101C307.454 377.375 308.132 376.329 307.783 374.185C307.478 372.304 306.907 370.516 306.051 368.812C302.741 362.224 297.625 357.184 291.699 353.086C276.397 342.508 260.872 332.252 243.708 324.834C238.488 322.577 233.126 320.729 227.27 320.798C225.283 320.821 224.418 321.636 223.7 323.328C221.906 327.553 221.77 332.02 221.392 337.824ZM167.426 117.979C166.167 117.806 165.901 118.17 164.786 120.675C160.613 130.038 159.417 140.006 158.902 150.084C158.584 156.313 159.109 162.531 159.653 168.745C160.031 173.049 160.542 177.333 161.193 181.596C161.916 186.325 162.76 191.034 163.664 195.737C164.864 201.966 166.223 208.152 167.766 214.291C169.69 221.949 171.819 229.557 174.011 237.143C175.826 243.429 177.855 249.653 179.808 255.899C179.943 256.329 180.105 256.86 180.711 256.86C181.207 256.86 181.327 256.397 181.54 256.062C185.77 249.369 190.023 242.699 194.811 236.371C200.778 228.486 206.914 220.755 213.797 213.646C219.36 207.897 225.005 202.224 231.166 197.108C236.889 192.357 242.737 187.756 248.904 183.588C250.038 182.821 249.969 182.238 249.128 181.347C244.985 176.967 240.988 172.441 236.718 168.19C229.519 161.021 222.21 153.972 214.433 147.407C208.796 142.648 203.086 137.999 197.04 133.783C190.723 129.379 184.129 125.39 177.229 121.984C174.034 120.407 170.726 118.958 167.426 117.979ZM478.304 199.411C479.287 201.116 481.097 201.946 482.418 203.302C488.279 209.324 494.412 215.07 499.871 221.497C504.209 226.605 508.343 231.856 512.324 237.237C516.513 242.897 520.462 248.726 524.228 254.675C524.783 255.552 524.911 256.921 526.07 257.005C526.385 257.028 526.917 255.351 527.195 254.408C529.491 246.646 531.998 238.948 534.222 231.162C536.746 222.326 539.084 213.446 541.041 204.481C543.182 194.67 545.032 184.803 546.157 174.788C546.906 168.125 547.33 161.46 547.586 154.788C547.813 148.848 547.07 142.913 546.425 136.999C546.297 136.615 546.094 136.24 546.05 135.847C545.415 130.283 543.691 125.036 541.375 119.976C540.233 117.479 539.975 117.453 537.339 118.497C528.196 122.122 519.56 126.744 511.478 132.306C498.798 141.032 487.234 151.138 476.16 161.802C469.71 168.012 463.558 174.514 457.56 181.163C456.646 182.175 456.424 182.729 457.736 183.689C462.647 187.28 467.586 190.83 472.317 194.673C474.284 196.272 475.93 198.318 478.304 199.411ZM475.446 131.677C481.111 126.243 486.6 120.622 492.56 115.497C503.383 106.189 514.924 97.9588 527.998 92.0844C536.503 88.2635 545.323 85.4805 554.7 84.7539C556.045 84.6498 556.856 84.8974 557.653 86.1798C561.089 91.7034 563.269 97.6991 564.936 103.938C568.37 116.794 568.88 129.922 568.374 143.095C567.961 153.853 566.882 164.568 565.328 175.238C564.099 183.682 562.561 192.068 561.04 200.459C560.461 203.648 559.577 206.784 559.155 210.008C558.964 210.654 558.728 211.292 558.587 211.95C556.245 222.872 553.48 233.692 550.64 244.491C547.297 257.204 543.775 269.873 539.653 282.349C538.444 286.007 539.251 288.822 540.668 291.972C544.729 300.993 549.888 309.489 553.345 318.797C555.803 325.409 558.232 332.03 560.253 338.788C563.554 349.829 566.048 361.055 567.862 372.437C568.971 379.397 569.836 386.387 570.456 393.4C570.993 399.476 571.379 405.573 571.557 411.667C571.626 414.006 572.58 416.347 571.709 418.703C568.559 418.225 565.422 417.624 562.257 417.292C551.911 416.207 541.588 415.708 531.158 416.759C519.118 417.973 507.518 420.699 496.386 425.31C481.906 431.308 469.125 439.984 457.759 450.748C454.681 453.664 451.721 456.705 448.592 459.801C447.384 456.178 446.239 452.72 445.078 449.266C441.747 439.347 436.733 430.19 432.194 420.817C430.825 417.992 429.113 415.383 427.051 413.008C419.796 404.649 411.626 397.327 402.191 391.507C387.642 382.536 371.627 378.645 354.689 378.602C345.909 378.579 337.307 380.356 328.914 382.98C312.338 388.163 299.012 398.06 287.658 411.009C283.515 415.733 280.765 421.231 277.577 426.505C273.27 433.628 269.314 440.938 266.023 448.593C264.432 452.299 262.83 455.999 261.145 459.907C260.348 459.028 259.715 458.331 259.083 457.632C239.556 436.027 216.214 421.21 186.942 416.712C176.05 415.039 165.172 414.944 154.241 415.827C148.83 416.263 143.487 417.203 138.142 418.111C138.229 412.007 138.744 405.933 139.231 399.848C139.871 391.868 141.006 383.961 142.345 376.089C143.48 369.424 144.933 362.808 146.516 356.22C149.051 345.666 152.073 335.269 155.718 325.05C156.408 323.113 157.455 321.172 155.627 319.263C155.567 319.202 155.716 318.942 155.822 318.597C157.016 320.174 157.621 319.902 158.243 318.211C161.906 308.272 166.175 298.586 170.601 288.968C171.042 288.005 171.36 287.078 170.942 286.041C166.861 275.917 163.473 265.557 160.485 255.066C158.205 247.065 156.079 239.022 154.345 230.879C153.091 224.99 151.753 219.118 150.453 213.24C150.138 208.364 148.949 203.622 148.235 198.806C147.132 191.372 146.116 183.93 145.34 176.457C144.541 168.771 143.99 161.072 143.608 153.348C143.235 145.812 143.143 138.283 143.423 130.76C143.769 121.492 144.392 112.219 146.744 103.192C148.022 98.2912 149.689 93.5022 152.418 89.1639C155.553 84.1768 158.094 83.237 163.912 84.1405C174.118 85.726 183.108 90.1593 191.643 95.6487C203.028 102.971 213.152 111.854 222.751 121.355C226.599 125.165 230.461 128.96 234.317 132.762C234.554 133.089 234.764 133.441 235.034 133.737C240.077 139.241 245.197 144.675 250.159 150.249C257.194 158.152 264.173 166.109 271.036 174.161C272.428 175.794 273.553 176.052 275.457 175.266C287.529 170.285 300.044 166.77 312.863 164.359C323.95 162.275 335.187 161.553 346.435 161.161C362.544 160.599 378.596 161.344 394.512 164.004C408.774 166.388 422.732 169.978 436.262 175.13C439.311 176.29 439.284 176.34 441.26 173.555C447.224 165.142 453.619 157.065 460.163 149.098C465.07 143.123 470.292 137.431 475.446 131.677Z" fill="#F4A817"/>
<path d="M571.708 418.704C572.579 416.347 571.624 414.005 571.557 411.667C571.379 405.572 570.992 399.476 570.455 393.4C569.835 386.388 568.97 379.396 567.861 372.436C566.047 361.055 563.553 349.828 560.252 338.788C558.23 332.029 555.802 325.409 553.344 318.796C549.886 309.49 544.727 300.992 540.667 291.971C539.251 288.822 538.444 286.007 539.653 282.349C543.775 269.873 547.296 257.205 550.639 244.491C553.478 233.691 556.244 222.872 558.585 211.948C558.727 211.292 558.962 210.654 559.154 210.007C565.594 219.236 571.161 228.973 576.284 238.984C582.9 251.914 588.374 265.317 592.797 279.132C596.599 291.011 599.524 303.117 601.679 315.426C604.773 333.084 606.148 350.86 605.865 368.761C605.649 382.358 604.488 395.9 602.243 409.314C596.567 443.206 585.167 475.06 567.531 504.576C549.598 534.587 526.684 560.151 498.477 580.915C482.857 592.413 466.133 601.907 448.268 609.46C437.821 613.878 427.131 617.558 416.177 620.431C404.285 623.549 392.205 625.694 379.957 626.931C364.964 628.448 349.956 628.528 334.967 627.253C322.451 626.189 310.097 624.023 297.884 620.967C281.171 616.785 265.11 610.877 249.73 603.198C213.036 584.875 182.779 558.876 158.442 525.926C145.628 508.577 135.189 489.896 126.917 469.976C122.181 458.572 118.194 446.92 115.045 434.997C111.771 422.599 109.418 410.015 107.887 397.27C105.65 378.646 105.343 359.99 106.766 341.311C107.921 326.135 110.347 311.134 114.072 296.374C121.539 266.783 133.45 239.107 150.182 213.545C150.256 213.433 150.361 213.341 150.451 213.24C151.752 219.118 153.089 224.989 154.343 230.878C156.079 239.021 158.204 247.063 160.484 255.065C163.472 265.557 166.86 275.917 170.942 286.04C171.359 287.077 171.042 288.005 170.599 288.966C166.174 298.585 161.904 308.272 158.243 318.212C157.62 319.902 157.014 320.173 155.821 318.597C155.715 318.941 155.567 319.202 155.626 319.262C157.455 321.17 156.408 323.113 155.717 325.05C152.072 335.27 149.05 345.666 146.515 356.22C144.932 362.808 143.479 369.423 142.345 376.09C141.005 383.96 139.869 391.868 139.23 399.848C138.742 405.931 138.228 412.006 138.14 418.112C137.649 425.689 138.346 433.146 140.336 440.483C143.281 451.342 148.036 461.391 153.943 470.919C165.831 490.092 181.15 506.258 198.101 520.952C221.656 541.372 247.664 558.003 275.982 571.04C281.553 573.606 287.076 576.227 292.85 578.366C297.1 579.94 301.362 581.415 305.634 582.892C308.298 583.814 311 584.785 313.706 585.619C323.733 588.709 334.003 590.787 344.427 591.799C356.293 592.95 368.13 592.257 379.908 590.274C390.45 588.498 400.787 585.93 410.943 582.658C421.413 579.284 431.625 575.217 441.623 570.605C455.762 564.086 469.321 556.542 482.307 547.963C494.571 539.861 506.197 530.929 517.005 520.963C521.618 516.709 526.239 512.444 530.23 507.566C530.751 507.462 530.981 507.067 531.164 506.627L531.292 506.619L531.34 506.501C531.547 506.326 531.782 506.176 531.959 505.976C539.347 497.663 546.267 489.012 551.937 479.395C555.084 474.059 558.439 468.839 561.062 463.217C565.848 452.963 569.231 442.267 570.906 431.046C571.519 426.948 571.86 422.845 571.708 418.704Z" fill="#F00500"/>
<path d="M475.446 131.676C470.291 137.43 465.071 143.123 460.162 149.097C453.619 157.064 447.225 165.142 441.26 173.555C439.285 176.34 439.312 176.289 436.263 175.129C422.732 169.977 408.774 166.388 394.512 164.004C378.595 161.343 362.543 160.598 346.435 161.16C335.187 161.552 323.95 162.275 312.864 164.359C300.044 166.77 287.529 170.284 275.457 175.266C273.552 176.052 272.428 175.794 271.036 174.161C264.173 166.109 257.195 158.152 250.159 150.248C245.197 144.674 240.077 139.24 235.034 133.737C234.764 133.441 234.555 133.088 234.316 132.763C249.023 124.109 264.455 117.022 280.64 111.64C294.175 107.139 308.013 103.914 322.159 101.879C340.211 99.2832 358.297 98.8951 376.433 100.35C388.893 101.351 401.185 103.471 413.332 106.485C434.778 111.807 455.023 120.082 474.261 130.895C474.672 131.127 475.052 131.415 475.446 131.676Z" fill="#F00500"/>
<path d="M521.746 514.655L521.812 514.556L521.707 514.544L521.746 514.655ZM522.977 513.43L523.038 513.336L522.938 513.324L522.977 513.43ZM525.016 511.608L524.941 511.727L525.065 511.739L525.016 511.608ZM521.273 515.306C521.217 515.286 521.152 515.24 521.106 515.254C520.908 515.311 520.898 515.406 521.083 515.492C521.126 515.512 521.211 515.484 521.254 515.451C521.281 515.43 521.268 515.356 521.273 515.306ZM386.893 587.487H385.031C385.746 587.932 386.293 587.781 386.893 587.487ZM380.802 588.379C382.271 588.831 383.219 588.48 384.315 587.932C383.048 587.511 382.16 588.213 380.802 588.379ZM359.377 510.737V510.667C353.602 510.667 347.827 510.669 342.052 510.667C338.583 510.665 338.633 510.661 338.759 514.149C338.793 515.064 339.23 515.478 339.868 515.896C341.575 517.017 343.513 517.629 345.365 518.432C346.657 518.993 347.353 518.871 347.871 517.334C348.883 514.332 348.991 514.435 352.164 514.64C353.206 514.708 353.765 515.18 354.233 515.958C355.309 517.747 356.367 519.546 357.45 521.331C359.131 524.101 361.836 524.268 363.95 521.749C364.862 520.662 365.781 519.583 366.694 518.499C369.723 514.906 369.722 514.906 373.315 517.973C373.809 518.395 374.159 519.038 375.014 518.836C377.954 518.136 380.142 515.327 380.23 512.434C380.278 510.885 379.648 510.699 378.336 510.711C372.017 510.77 365.697 510.737 359.377 510.737ZM418.32 493.138C412.521 493.138 406.819 493.147 401.115 493.129C400.281 493.127 399.843 493.642 399.602 494.264C399.02 495.767 397.981 496.076 396.447 496.033C391.965 495.909 387.476 495.976 382.989 495.946C380.686 495.931 377.937 496.636 376.201 495.623C374.395 494.568 373.424 491.91 372.361 489.815C371.616 488.346 370.746 487.607 369.107 487.887C368.075 488.062 367.707 487.685 367.72 486.579C367.777 481.481 367.764 476.382 367.726 471.284C367.72 470.41 367.946 469.98 368.827 469.689C372.78 468.385 376.349 466.323 379.646 463.821C386.111 458.914 390.629 452.7 392.136 444.568C393.172 438.98 392.639 433.319 392.827 427.695C393.057 420.917 386.195 413.98 379.418 413.976C366.843 413.968 354.266 413.969 341.689 413.975C334.027 413.979 328.969 419.047 328.963 426.714C328.961 430.317 329.145 433.929 328.929 437.52C328.489 444.899 331.525 450.78 336.463 455.887C342.44 462.067 349.796 466.152 357.591 469.531C358.348 469.859 359.076 469.985 359.064 471.119C359.013 476.283 359.036 481.448 359.057 486.612C359.06 487.416 358.886 488.045 357.949 487.814C355.879 487.306 355.131 488.675 354.33 490.136C353.424 491.789 352.372 493.363 351.456 495.012C351.039 495.758 350.534 496.02 349.679 496.019C341.657 496.002 333.637 496.033 325.623 495.598C324.981 495.562 324.375 495.597 324.36 494.714C324.339 493.418 323.484 493.258 322.444 493.253C316.871 493.231 311.297 493.177 305.723 493.161C305.319 493.16 304.676 492.864 304.564 493.577C304.461 494.231 304.334 494.937 304.912 495.493C305.894 496.43 306.809 497.45 307.866 498.293C309.181 499.344 309.711 500.597 309.826 502.29C309.985 504.64 310.397 506.977 310.857 509.308C311.238 511.234 311.821 511.814 313.74 511.224C315.003 510.837 316.436 510.66 316.655 512.742C316.955 515.582 317.885 518.285 318.793 520.967C320.018 524.581 321.433 528.129 323.698 531.171C326.322 528.488 326.57 525.336 326.451 521.888C326.23 515.516 326.387 509.132 326.387 502.713C327.307 502.819 328.328 502.859 329.316 503.063C337.789 504.801 346.389 505.429 354.997 505.757C368.883 506.284 382.674 505.106 396.355 502.716C397.902 502.446 398.157 502.778 398.125 504.26C397.989 510.783 398.017 517.31 397.913 523.835C397.864 526.849 399.971 528.7 401.344 531.285C403.565 525.5 405.649 520.091 407.722 514.679C408.913 511.569 408.907 511.538 412.195 511.55C413.132 511.554 413.892 511.551 414.163 510.41C415.518 504.702 416.906 499.001 418.32 493.138ZM528.503 508.267C528.611 508.133 528.721 507.999 528.83 507.865C528.758 507.812 528.684 507.759 528.611 507.706C528.555 507.873 528.498 508.04 528.442 508.209C528.318 508.355 528.193 508.501 528.068 508.646C527.497 508.618 527.24 508.906 527.251 509.461C527.082 509.504 526.915 509.546 526.747 509.588C526.793 509.66 526.839 509.73 526.886 509.801C527.011 509.691 527.135 509.579 527.258 509.469C527.659 509.325 527.931 509.051 528.075 508.651C528.218 508.523 528.36 508.395 528.503 508.267ZM526.059 510.721C526.185 510.647 526.436 510.623 526.187 510.399C526.123 510.485 526.058 510.571 525.996 510.658C525.938 510.733 525.88 510.808 525.822 510.884C525.901 510.828 525.98 510.775 526.059 510.721ZM524.036 512.78C524.114 512.702 524.267 512.567 524.259 512.557C524.069 512.313 524.001 512.519 523.918 512.663C523.872 512.75 523.825 512.839 523.777 512.926C523.864 512.877 523.95 512.829 524.036 512.78ZM530.23 507.566C526.239 512.444 521.618 516.709 517.006 520.963C506.197 530.929 494.571 539.862 482.307 547.963C469.321 556.542 455.762 564.086 441.623 570.605C431.625 575.217 421.413 579.284 410.943 582.659C400.787 585.93 390.45 588.498 379.908 590.274C368.13 592.257 356.293 592.95 344.427 591.799C334.003 590.788 323.733 588.709 313.707 585.619C311 584.786 308.298 583.814 305.634 582.892C301.362 581.415 297.1 579.94 292.85 578.366C287.076 576.228 281.553 573.606 275.981 571.04C247.664 558.003 221.656 541.372 198.1 520.952C181.15 506.258 165.831 490.092 153.943 470.919C148.035 461.391 143.281 451.342 140.336 440.483C138.346 433.146 137.649 425.689 138.14 418.112C143.486 417.203 148.829 416.263 154.239 415.827C165.171 414.945 176.049 415.038 186.941 416.712C216.213 421.21 239.554 436.026 259.082 457.631C259.713 458.33 260.347 459.028 261.144 459.907C262.829 455.999 264.43 452.298 266.022 448.593C269.314 440.938 273.27 433.628 277.575 426.504C280.763 421.231 283.513 415.733 287.657 411.009C299.011 398.059 312.337 388.163 328.913 382.98C337.306 380.355 345.909 378.579 354.688 378.601C371.626 378.645 387.642 382.536 402.19 391.507C411.626 397.326 419.794 404.648 427.05 413.007C429.112 415.381 430.824 417.991 432.193 420.816C436.732 430.189 441.746 439.347 445.078 449.265C446.238 452.719 447.383 456.178 448.592 459.801C451.721 456.705 454.68 453.664 457.758 450.747C469.124 439.983 481.905 431.308 496.384 425.31C507.517 420.699 519.117 417.973 531.157 416.759C541.587 415.709 551.91 416.207 562.256 417.292C565.421 417.623 568.558 418.225 571.708 418.703C571.86 422.846 571.519 426.948 570.906 431.047C569.231 442.268 565.848 452.963 561.062 463.217C558.439 468.84 555.084 474.059 551.937 479.395C546.266 489.012 539.345 497.663 531.959 505.976C531.782 506.176 531.547 506.327 531.34 506.501C531.003 505.654 532.097 505.193 531.99 504.231C531.153 505.004 530.198 505.461 530.107 506.616L530.12 506.603C529.892 506.699 529.502 506.757 529.466 506.902C529.345 507.402 529.838 507.307 530.109 507.423L530.23 507.566Z" fill="#FFFEFE"/>
<path d="M167.426 117.978C170.727 118.958 174.034 120.407 177.229 121.984C184.13 125.389 190.723 129.378 197.04 133.782C203.087 137.998 208.796 142.649 214.434 147.407C222.21 153.971 229.519 161.021 236.719 168.189C240.988 172.442 244.985 176.966 249.129 181.348C249.969 182.237 250.038 182.821 248.904 183.587C242.737 187.756 236.889 192.356 231.166 197.107C225.006 202.224 219.36 207.897 213.797 213.645C206.915 220.756 200.778 228.485 194.811 236.37C190.023 242.699 185.77 249.368 181.54 256.062C181.328 256.397 181.207 256.859 180.711 256.859C180.105 256.859 179.943 256.329 179.809 255.899C177.855 249.653 175.827 243.429 174.011 237.143C171.82 229.557 169.69 221.948 167.766 214.29C166.223 208.152 164.864 201.965 163.665 195.738C162.76 191.035 161.916 186.325 161.193 181.595C160.543 177.333 160.031 173.048 159.653 168.744C159.109 162.531 158.584 156.313 158.902 150.083C159.417 140.006 160.613 130.038 164.786 120.674C165.902 118.17 166.167 117.805 167.426 117.978Z" fill="#F28F1F"/>
<path d="M546.424 136.999C547.069 142.912 547.812 148.847 547.585 154.787C547.329 161.459 546.905 168.125 546.157 174.787C545.031 184.802 543.181 194.669 541.04 204.48C539.084 213.444 536.745 222.326 534.221 231.161C531.997 238.949 529.491 246.645 527.194 254.408C526.916 255.35 526.384 257.028 526.07 257.004C524.91 256.92 524.782 255.552 524.227 254.675C520.461 248.725 516.513 242.898 512.323 237.236C508.342 231.856 504.208 226.605 499.87 221.497C494.411 215.069 488.278 209.324 482.416 203.303C481.096 201.946 479.286 201.116 478.303 199.41C478.668 198.929 479.13 198.492 479.384 197.956C481.953 192.523 484.864 187.276 487.963 182.13C492.648 174.352 497.838 166.92 503.924 160.184C510.31 153.114 517.523 146.999 526.108 142.679C532.504 139.46 539.191 137.246 546.424 136.999Z" fill="#F28B20"/>
<path d="M221.391 337.823C221.769 332.021 221.904 327.553 223.698 323.328C224.417 321.636 225.282 320.821 227.27 320.796C233.125 320.728 238.486 322.577 243.707 324.833C260.871 332.251 276.396 342.507 291.698 353.086C297.624 357.183 302.739 362.223 306.049 368.812C306.906 370.516 307.476 372.304 307.782 374.185C308.131 376.329 307.453 377.373 305.297 378.101C302.755 378.959 300.126 379.252 297.48 379.18C290.073 378.973 282.792 377.818 275.56 376.223C268.348 374.634 261.272 372.613 254.365 370.01C243.74 366.003 233.521 361.278 225.195 353.248C223.187 351.312 221.708 349.284 221.777 346.248C221.852 342.997 221.491 339.737 221.391 337.823Z" fill="#1F1712"/>
<path d="M491.878 338.522C491.736 341.234 491.46 343.949 491.498 346.659C491.527 348.752 490.567 350.211 489.271 351.645C484.331 357.098 478.232 360.936 471.774 364.283C462.059 369.317 451.772 372.837 441.182 375.421C432.953 377.429 424.62 378.946 416.083 378.961C413.809 378.965 411.631 378.529 409.464 378.005C407.165 377.451 406.457 376.198 406.788 374.064C407.857 367.166 412.089 362.179 416.825 357.55C422.818 351.691 430.011 347.424 436.94 342.835C445.504 337.162 454.227 331.735 463.431 327.137C469.914 323.899 476.487 320.8 483.831 320.152C489.19 319.681 488.728 319.752 490.515 325.198C491.929 329.503 491.866 334.027 491.878 338.522Z" fill="#1F1713"/>
<path d="M546.423 136.999C539.191 137.246 532.504 139.46 526.108 142.679C517.523 146.999 510.309 153.114 503.924 160.184C497.839 166.92 492.648 174.352 487.964 182.13C484.864 187.276 481.953 192.523 479.384 197.956C479.13 198.491 478.668 198.929 478.303 199.411C475.929 198.318 474.283 196.271 472.316 194.672C467.585 190.83 462.646 187.279 457.735 183.689C456.423 182.728 456.646 182.174 457.559 181.162C463.557 174.514 469.711 168.011 476.159 161.802C487.233 151.137 498.797 141.033 511.477 132.307C519.559 126.744 528.195 122.121 537.338 118.497C539.973 117.452 540.232 117.479 541.373 119.975C543.69 125.036 545.414 130.282 546.048 135.847C546.093 136.24 546.295 136.615 546.423 136.999Z" fill="#F2991D"/>
<path d="M455.311 307.576C446.414 307.415 438.97 307.143 431.719 305.004C424.97 303.012 422.079 298.716 422.64 291.59C423.25 283.83 427.382 278.012 432.789 272.936C435.843 270.068 439.094 267.362 443.131 265.905C450.067 263.404 456.671 264.551 462.853 268.17C470.588 272.698 475.932 279.111 477.207 288.266C477.933 293.491 476.75 298.358 473.876 302.843C471.829 306.039 468.647 306.808 465.285 307.026C461.492 307.27 457.702 307.747 455.311 307.576Z" fill="#FFFEFE"/>
<path d="M254.632 307.51C249.71 307.564 245.322 307.178 240.925 306.823C237.03 306.51 235.058 304.035 233.166 301.079C230.355 296.687 230.631 292.032 231.205 287.16C232.509 276.086 243.328 266.67 253.954 264.874C260.113 263.834 265.759 265.393 270.747 269.276C276.481 273.739 281.774 278.613 283.871 285.838C285.219 290.485 284.836 295.277 283.116 299.832C282.181 302.308 279.989 303.695 277.622 304.55C273.788 305.933 269.765 306.7 265.717 307.006C261.867 307.297 258.006 307.74 254.632 307.51Z" fill="#FFFEFE"/>
<path d="M530.105 506.615C530.197 505.46 531.15 505.004 531.988 504.231C532.095 505.193 531.001 505.655 531.338 506.5C531.338 506.501 531.29 506.619 531.29 506.619L531.161 506.627C530.81 506.623 530.458 506.619 530.105 506.615Z" fill="#F6D9A7"/>
<path d="M530.105 506.616C530.458 506.62 530.81 506.624 531.161 506.628C530.979 507.069 530.75 507.463 530.229 507.567C530.229 507.568 530.108 507.423 530.108 507.423C530.111 507.149 530.115 506.876 530.118 506.603L530.105 506.616Z" fill="#FFFEFE"/>
<path d="M418.317 493.138C416.903 499.001 415.515 504.702 414.161 510.411C413.89 511.551 413.13 511.553 412.193 511.55C408.905 511.538 408.911 511.569 407.72 514.679C405.647 520.091 403.564 525.5 401.342 531.284C399.969 528.7 397.862 526.849 397.911 523.834C398.016 517.311 397.987 510.784 398.123 504.259C398.155 502.778 397.9 502.446 396.353 502.716C382.672 505.105 368.881 506.284 354.995 505.756C346.387 505.429 337.787 504.801 329.315 503.062C328.326 502.859 327.305 502.818 326.385 502.713C326.385 509.131 326.228 515.515 326.449 521.888C326.568 525.335 326.32 528.488 323.696 531.171C321.431 528.129 320.016 524.58 318.791 520.967C317.883 518.285 316.953 515.582 316.653 512.741C316.435 510.659 315.001 510.837 313.738 511.225C311.819 511.814 311.236 511.233 310.855 509.308C310.395 506.977 309.984 504.64 309.824 502.289C309.708 500.597 309.179 499.344 307.864 498.293C306.807 497.449 305.892 496.429 304.91 495.492C304.332 494.938 304.459 494.231 304.562 493.577C304.675 492.863 305.318 493.159 305.721 493.16C311.294 493.177 316.869 493.23 322.442 493.253C323.482 493.257 324.337 493.418 324.358 494.714C324.374 495.596 324.979 495.562 325.621 495.597C333.635 496.033 341.655 496.002 349.676 496.018C350.531 496.02 351.038 495.759 351.454 495.011C352.37 493.364 353.423 491.791 354.328 490.135C355.129 488.675 355.877 487.306 357.946 487.815C358.884 488.044 359.058 487.416 359.055 486.613C359.034 481.449 359.011 476.283 359.062 471.119C359.074 469.985 358.347 469.859 357.59 469.53C349.794 466.153 342.439 462.067 336.461 455.886C331.522 450.78 328.486 444.898 328.928 437.52C329.142 433.93 328.958 430.316 328.961 426.713C328.967 419.048 334.025 413.979 341.688 413.975C354.264 413.969 366.841 413.967 379.416 413.975C386.193 413.98 393.055 420.917 392.826 427.694C392.637 433.32 393.17 438.98 392.134 444.567C390.627 452.7 386.109 458.913 379.644 463.82C376.347 466.323 372.778 468.386 368.825 469.69C367.945 469.98 367.718 470.41 367.724 471.284C367.762 476.383 367.775 481.482 367.718 486.578C367.706 487.684 368.074 488.061 369.105 487.887C370.744 487.607 371.615 488.346 372.359 489.815C373.422 491.911 374.394 494.569 376.199 495.622C377.936 496.635 380.684 495.931 382.988 495.945C387.474 495.975 391.963 495.908 396.445 496.033C397.979 496.075 399.019 495.767 399.6 494.264C399.841 493.642 400.28 493.126 401.113 493.129C406.816 493.146 412.519 493.138 418.317 493.138Z" fill="#1D1919"/>
<path d="M359.378 510.738C365.697 510.738 372.017 510.77 378.336 510.712C379.648 510.699 380.278 510.885 380.231 512.434C380.143 515.326 377.954 518.136 375.015 518.835C374.16 519.037 373.81 518.394 373.315 517.973C369.723 514.907 369.724 514.907 366.696 518.499C365.781 519.584 364.862 520.662 363.951 521.749C361.837 524.268 359.132 524.101 357.45 521.332C356.368 519.548 355.309 517.747 354.233 515.958C353.765 515.18 353.207 514.707 352.165 514.641C348.991 514.435 348.885 514.332 347.872 517.334C347.354 518.87 346.657 518.992 345.366 518.433C343.513 517.629 341.575 517.017 339.868 515.897C339.23 515.478 338.793 515.064 338.759 514.149C338.634 510.661 338.584 510.665 342.053 510.667C347.827 510.669 353.603 510.667 359.378 510.667V510.738Z" fill="#171413"/>
<path d="M380.803 588.379C382.162 588.213 383.048 587.511 384.315 587.932C383.22 588.48 382.27 588.831 380.803 588.379Z" fill="#F6D9A7"/>
<path d="M386.89 587.486C386.29 587.781 385.743 587.932 385.028 587.486H386.89Z" fill="#F6D9A7"/>
<path d="M530.12 506.602C530.116 506.876 530.112 507.149 530.109 507.422C529.838 507.306 529.345 507.401 529.467 506.901C529.502 506.757 529.892 506.7 530.12 506.602Z" fill="#F6D9A7"/>
<path d="M527.251 509.462C527.24 508.905 527.498 508.619 528.068 508.646L528.076 508.652C527.932 509.052 527.66 509.324 527.259 509.47L527.251 509.462Z" fill="#F6D9A7"/>
<path d="M527.259 509.469C527.135 509.58 527.012 509.69 526.888 509.802C526.841 509.731 526.795 509.659 526.748 509.588C526.916 509.546 527.083 509.504 527.251 509.461L527.259 509.469Z" fill="#F7DDB0"/>
<path d="M521.284 515.3C521.279 515.351 521.293 515.428 521.264 515.448C521.219 515.484 521.132 515.513 521.087 515.491C520.897 515.404 520.907 515.304 521.11 515.245C521.16 515.232 521.225 515.28 521.284 515.3Z" fill="#F7DDB0"/>
<path d="M528.444 508.207C528.5 508.04 528.557 507.873 528.613 507.705C528.686 507.759 528.76 507.811 528.833 507.865C528.723 507.999 528.613 508.133 528.503 508.266L528.444 508.207Z" fill="#F6D9A7"/>
<path d="M528.067 508.645C528.196 508.495 528.325 508.344 528.453 508.195C528.452 508.194 528.514 508.255 528.515 508.255C528.368 508.387 528.222 508.519 528.074 508.651L528.067 508.645Z" fill="#F6D9A7"/>
<path d="M525.995 510.655C526.061 510.567 526.126 510.478 526.193 510.39C526.45 510.619 526.191 510.645 526.062 510.721L525.995 510.655Z" fill="#F7DDB0"/>
<path d="M526.066 510.715C525.984 510.771 525.902 510.827 525.821 510.883C525.881 510.805 525.941 510.729 526 510.65C525.999 510.65 526.066 510.715 526.066 510.715Z" fill="#F7DDB0"/>
<path d="M525.016 511.61L525.065 511.74L524.942 511.728L525.016 511.61Z" fill="#F7DDB0"/>
<path d="M523.916 512.658C524.002 512.509 524.072 512.299 524.269 512.551C524.276 512.561 524.119 512.701 524.04 512.779L523.916 512.658Z" fill="#F7DDB0"/>
<path d="M524.044 512.775C523.954 512.825 523.865 512.876 523.776 512.926C523.825 512.835 523.873 512.746 523.921 512.655C523.92 512.654 524.044 512.775 524.044 512.775Z" fill="#F7DDB0"/>
<path d="M522.979 513.43L522.936 513.313L523.047 513.326L522.979 513.43Z" fill="#F7DDB0"/>
<path d="M521.748 514.656L521.706 514.536L521.818 514.549L521.748 514.656Z" fill="#F7DDB0"/>
</svg>
