<svg width="22" height="22" viewBox="0 0 22 22" fill="none" xmlns="http://www.w3.org/2000/svg">
<path d="M11 22C17.0751 22 22 17.0751 22 11C22 4.92487 17.0751 0 11 0C4.92487 0 0 4.92487 0 11C0 17.0751 4.92487 22 11 22Z" fill="url(#paint0_linear)"/>
<mask id="mask0" mask-type="alpha" maskUnits="userSpaceOnUse" x="0" y="0" width="22" height="22">
<path d="M11 22C17.0751 22 22 17.0751 22 11C22 4.92487 17.0751 0 11 0C4.92487 0 0 4.92487 0 11C0 17.0751 4.92487 22 11 22Z" fill="url(#paint1_linear)"/>
</mask>
<g mask="url(#mask0)">
<path d="M7.36802 21.9424C3.2455 20.5078 0.239256 16.6893 0 12.1376C3.05007 10.0269 6.7535 8.80144 10.6993 8.80159C10.774 8.80159 10.8492 8.8021 10.924 8.80291C10.9293 8.80276 10.9346 8.80254 10.9399 8.80239C10.9635 8.80159 10.987 8.80078 11.0107 8.80078C12.5151 8.80078 13.7346 10.0015 13.7346 11.4827C13.7346 12.2231 13.4298 12.8935 12.9376 13.3799C12.8564 13.4558 12.7988 13.5073 12.7387 13.5558C10.2485 15.7725 8.35824 18.651 7.36802 21.9424Z" fill="url(#paint2_linear)"/>
</g>
<defs>
<linearGradient id="paint0_linear" x1="11" y1="0" x2="11" y2="22" gradientUnits="userSpaceOnUse">
<stop stop-color="#1D173A"/>
<stop offset="1" stop-color="#102176"/>
</linearGradient>
<linearGradient id="paint1_linear" x1="11" y1="0" x2="11" y2="22" gradientUnits="userSpaceOnUse">
<stop stop-color="#1D173C"/>
<stop offset="1" stop-color="#152170"/>
</linearGradient>
<linearGradient id="paint2_linear" x1="6.86731" y1="8.80078" x2="6.86731" y2="21.9424" gradientUnits="userSpaceOnUse">
<stop stop-color="#36DBFD"/>
<stop offset="1" stop-color="#0085FF"/>
</linearGradient>
</defs>
</svg>
