<svg width="192" height="192" viewBox="0 0 192 192" fill="none" xmlns="http://www.w3.org/2000/svg">
<path d="M95.9896 191.979C149.003 191.979 191.979 149.003 191.979 95.9896C191.979 42.976 149.003 0 95.9896 0C42.976 0 0 42.976 0 95.9896C0 149.003 42.976 191.979 95.9896 191.979Z" fill="url(#paint0_linear)"/>
<path d="M64.3723 72.1245C63.6051 71.172 62.4409 70.6429 61.1974 70.6429H35.5596C35.3479 70.6429 35.1627 70.5635 35.004 70.4312C34.8717 70.2989 34.7923 70.1402 34.7923 69.955V52.6779C34.7923 52.4927 34.8717 52.3339 35.004 52.2017C35.1627 52.0429 35.3479 51.9635 35.5596 51.99H62.6526C69.4787 51.99 75.3789 54.7945 80.353 60.3772L86.941 68.4204L74.1089 84.0571L64.3723 72.1245ZM111.732 60.2978C116.68 54.7681 122.606 51.99 129.512 51.99H156.526C156.711 51.9635 156.896 52.0429 157.028 52.1487C157.161 52.281 157.213 52.4662 157.187 52.6779V69.955C157.187 70.1402 157.134 70.2989 157.028 70.4312C156.896 70.59 156.711 70.6693 156.526 70.6429H130.888C129.671 70.6164 128.507 71.172 127.713 72.1245L108.822 95.1165L127.792 118.267C128.559 119.14 129.697 119.67 130.861 119.643H156.499C156.684 119.617 156.896 119.722 157.002 119.855C157.108 120.014 157.187 120.225 157.161 120.41V137.687C157.161 137.873 157.108 138.031 157.002 138.164C156.87 138.322 156.684 138.402 156.499 138.375H129.512C122.606 138.375 116.733 135.571 111.812 129.988L96.0955 110.806L80.3794 129.988C75.4318 135.571 69.5052 138.375 62.5997 138.375H35.5596C35.3744 138.402 35.1627 138.296 35.0569 138.164C34.9246 138.005 34.8717 137.793 34.8981 137.608V120.331C34.8981 120.146 34.951 119.987 35.0569 119.855C35.1892 119.696 35.3744 119.617 35.5596 119.643H61.1974C62.4145 119.643 63.5786 119.087 64.3723 118.161L82.9194 95.5134L111.732 60.2978Z" fill="#00D1FF"/>
<defs>
<linearGradient id="paint0_linear" x1="96.0028" y1="-0.000555618" x2="96.0028" y2="50.7988" gradientUnits="userSpaceOnUse">
<stop stop-color="#090220"/>
<stop offset="1" stop-color="#170659"/>
</linearGradient>
</defs>
</svg>
