<svg width="64" height="64" viewBox="0 0 64 64" fill="none" xmlns="http://www.w3.org/2000/svg">
<path d="M17.9418 63.4754C34.0284 63.4754 34.0284 63.2359 36.756 62.4262C40.3205 61.3681 26.6919 51.9344 17.9418 51.9344C9.19173 51.9344 2.09837 54.518 2.09837 57.7049C2.09837 60.8919 9.19208 63.4754 17.9418 63.4754Z" fill="black"/>
<path d="M54.4695 14.4045L55.2095 15.2019L54.5626 16.0765C33.5828 44.4427 21.4971 57.2863 16.3693 55.5637C13.2459 54.5144 10.1136 51.359 6.9812 46.7769C5.88019 45.1664 4.84629 43.4704 3.90597 41.7828C3.27979 40.6589 2.7498 39.6339 2.47461 39.0566C2.12358 38.3201 1.97537 37.8664 1.85779 37.2706C1.85062 37.2341 1.85062 37.2341 1.8438 37.199C1.79473 36.9461 1.77775 36.8661 1.74106 36.7279C1.10977 34.3486 0.786888 31.8836 0.786888 29.377C0.786888 13.5871 13.5871 0.786885 29.3771 0.786885C34.3238 0.786885 39.0909 2.04586 43.3156 4.40916L43.4247 4.47741C46.8836 6.88558 50.5628 10.1946 54.4695 14.4045ZM41.979 6.66705C38.1571 4.5414 33.8507 3.40984 29.3771 3.40984C15.0358 3.40984 3.40984 15.0358 3.40984 29.377C3.40984 31.656 3.70311 33.8949 4.27629 36.0552C4.33297 36.2688 4.35861 36.3895 4.41874 36.6994C4.42505 36.7319 4.42505 36.7319 4.43112 36.7628C4.507 37.1473 4.58706 37.3924 4.84234 37.928C5.09338 38.4546 5.59786 39.4303 6.19727 40.5061C7.10104 42.1282 8.09421 43.7573 9.14653 45.2967C11.9766 49.4364 14.7833 52.2639 17.2045 53.0773C20.4338 54.1621 32.5908 41.2931 51.803 15.3953C48.315 11.7137 45.0384 8.80419 41.979 6.66705Z" fill="black"/>
<path d="M41.979 6.66705C38.1571 4.5414 33.8507 3.40984 29.377 3.40984C15.0358 3.40984 3.40984 15.0358 3.40984 29.377C3.40984 31.656 3.7031 33.8949 4.27629 36.0552C4.33297 36.2688 4.3586 36.3895 4.41873 36.6994C4.42504 36.7319 4.42504 36.7319 4.43111 36.7628C4.507 37.1473 4.58706 37.3924 4.84234 37.928C5.09337 38.4546 5.59786 39.4303 6.19727 40.5061C7.10104 42.1282 8.09421 43.7573 9.14653 45.2967C11.9766 49.4364 14.7833 52.2639 17.2045 53.0773C20.4338 54.1621 32.5908 41.2931 51.803 15.3953C48.315 11.7137 45.0384 8.80419 41.979 6.66705Z" fill="#EC1C79"/>
<path d="M34.623 63.2131C18.833 63.2131 6.03279 50.4129 6.03279 34.623C6.03279 18.833 18.833 6.03279 34.623 6.03279C50.4129 6.03279 63.2131 18.833 63.2131 34.623C63.2131 50.4129 50.4129 63.2131 34.623 63.2131ZM34.623 60.5902C48.9643 60.5902 60.5902 48.9642 60.5902 34.623C60.5902 20.2817 48.9643 8.65574 34.623 8.65574C20.2817 8.65574 8.65574 20.2817 8.65574 34.623C8.65574 48.9642 20.2817 60.5902 34.623 60.5902Z" fill="black"/>
<path d="M34.623 60.5902C48.9642 60.5902 60.5902 48.9642 60.5902 34.623C60.5902 20.2817 48.9642 8.65574 34.623 8.65574C20.2817 8.65574 8.65574 20.2817 8.65574 34.623C8.65574 48.9642 20.2817 60.5902 34.623 60.5902Z" fill="white"/>
<path fill-rule="evenodd" clip-rule="evenodd" d="M15.1984 39.9423L11.7613 29.5869H14.7725L16.5645 35.5357L18.5474 29.5575H21.0004L22.9833 35.5357L24.7753 29.5869H27.7277L24.2906 39.9423H21.8083L19.7372 34.0228L17.6808 39.9423H15.1984ZM28.8588 39.8688V29.5869H37.1284V32.0105H31.679V33.5675H36.6143V35.8148H31.679V37.4452H37.2018V39.8688H28.8588ZM41.1677 39.8688V32.0839H38.0832V29.5869H47.1019V32.0839H44.0173V39.8688H41.1677ZM48.3504 39.8688V29.5869H51.2V33.4353H54.8574V29.5869H57.707V39.8688H54.8574V35.9617H51.2V39.8688H48.3504Z" fill="black"/>
<path d="M2.49065 26.4941C1.76507 26.1313 1.47097 25.249 1.83376 24.5234C2.19655 23.7979 3.07885 23.5038 3.80443 23.8665L8.00115 25.9649C8.72674 26.3277 9.02084 27.21 8.65804 27.9356C8.29525 28.6612 7.41295 28.9553 6.68737 28.5925L2.49065 26.4941Z" fill="black"/>
<path d="M2.00745 33.4527C1.27088 33.1128 0.949348 32.2401 1.28928 31.5035C1.62922 30.767 2.50189 30.4454 3.23846 30.7854L7.43518 32.7222C8.17175 33.0621 8.49328 33.9348 8.15335 34.6714C7.81341 35.408 6.94074 35.7295 6.20417 35.3896L2.00745 33.4527Z" fill="black"/>
</svg>
