<svg width="2440" height="2440" viewBox="0 0 2440 2440" fill="none" xmlns="http://www.w3.org/2000/svg">
<path d="M1884.42 1641.96C1972.44 1760.23 2063.21 1881.26 2153.97 2002.28C1972.44 2216.83 1746.89 2354.35 1474.59 2412.11C1172.02 2475.38 885.967 2428.62 608.161 2274.59C855.711 2090.3 1097.76 1908.76 1342.56 1727.23C1397.57 1779.49 1449.83 1831.75 1502.09 1881.26C1559.85 1936.27 1537.85 1939.02 1612.11 1897.76C1713.88 1840 1799.15 1760.23 1865.17 1663.96C1867.92 1658.46 1873.42 1652.96 1876.17 1647.46C1873.42 1647.46 1876.17 1647.46 1884.42 1641.96V1641.96ZM803.45 1884.01C734.687 1936.27 671.424 1983.03 608.161 2032.54C561.401 2068.3 514.642 2101.3 467.883 2137.06C448.629 2153.56 434.876 2153.56 412.871 2134.31C203.829 1947.27 71.8023 1716.22 22.2923 1441.17C-27.2177 1163.36 16.7912 899.309 148.818 649.008C151.568 643.507 157.07 635.255 159.82 629.754C159.82 627.003 162.571 627.003 168.072 624.253C349.609 863.551 533.896 1102.85 715.433 1342.15C709.932 1350.4 707.181 1355.9 701.68 1361.4C646.669 1419.16 591.658 1476.93 533.896 1531.94C517.393 1548.44 514.642 1562.19 525.644 1581.45C583.406 1691.47 663.172 1782.24 762.192 1856.5C775.945 1864.75 786.947 1873.01 803.45 1884.01V1884.01ZM1829.41 175.912C1741.39 239.175 1653.37 302.438 1565.35 362.95C1414.07 470.222 1262.79 580.244 1114.26 687.516C1095.01 701.268 1081.26 704.019 1064.75 684.765C1015.24 632.505 962.983 585.745 913.473 533.484C899.72 519.732 885.967 516.981 866.713 525.233C748.439 585.745 654.92 671.012 577.905 778.284C572.404 783.785 566.903 792.037 561.401 800.289C517.393 742.527 476.134 690.266 434.876 635.255C390.867 577.493 349.609 519.732 308.35 464.721C294.597 445.467 291.847 431.714 311.101 412.46C522.894 178.663 784.197 41.1348 1097.76 8.12813C1345.31 -19.3774 1581.86 30.1326 1801.9 148.407C1810.15 153.908 1818.41 156.658 1826.66 162.159C1826.66 170.411 1826.66 173.162 1829.41 175.912V175.912ZM2277.75 1826.25C2219.99 1751.98 2167.73 1683.22 2115.47 1614.45C1994.44 1454.92 1873.42 1292.64 1749.64 1133.11C1733.14 1111.1 1733.14 1097.35 1752.39 1078.09C1804.65 1025.83 1854.16 973.574 1906.42 921.313C1920.18 907.56 1925.68 893.807 1914.68 874.553C1854.16 759.03 1771.65 662.761 1664.37 585.745C1656.12 580.244 1647.87 571.992 1636.87 566.491C1645.12 558.24 1653.37 552.738 1658.87 547.237C1763.39 467.471 1867.92 390.455 1972.44 310.689C1988.94 296.937 2002.69 291.435 2021.95 310.689C2283.25 547.237 2423.53 841.547 2437.28 1196.37C2442.78 1402.66 2396.02 1597.95 2302.5 1782.24C2294.25 1793.24 2286 1806.99 2277.75 1826.25V1826.25Z" fill="#231815"/>
</svg>
