<svg width="22" height="23" viewBox="0 0 22 23" xmlns="http://www.w3.org/2000/svg">
<path d="M3.12985 9.83312H13.7501C14.2564 9.83312 14.6668 9.42272 14.6668 8.91652C14.6668 8.41022 14.2564 7.99982 13.7501 7.99982H3.12985L5.2317 5.89802C5.5896 5.54002 5.5896 4.95962 5.2317 4.60162C4.8737 4.24372 4.2933 4.24372 3.9353 4.60162L0.268611 8.26832C0.247251 8.28962 0.227052 8.31212 0.207892 8.33552C0.199212 8.34612 0.191651 8.35722 0.183531 8.36812C0.173731 8.38122 0.163632 8.39392 0.154522 8.40762C0.145802 8.42062 0.138241 8.43412 0.130251 8.44752C0.122901 8.45982 0.115161 8.47182 0.108371 8.48452C0.101071 8.49812 0.0948813 8.51212 0.0883513 8.52612C0.0821213 8.53932 0.0755515 8.55222 0.0699215 8.56582C0.0643315 8.57932 0.0597816 8.59312 0.0548816 8.60692C0.0496816 8.62142 0.0441415 8.63562 0.0396715 8.65042C0.0355015 8.66422 0.0324512 8.67812 0.0289712 8.69212C0.0251412 8.70712 0.0209314 8.72202 0.0178814 8.73742C0.0147014 8.75352 0.0128114 8.76982 0.0104914 8.78602C0.00860141 8.79932 0.00602164 8.81252 0.00469164 8.82612C-0.00123836 8.88622 -0.00123836 8.94692 0.00469164 9.00702C0.00602164 9.02062 0.00856141 9.03372 0.0104914 9.04712C0.0128114 9.06332 0.0147015 9.07962 0.0179315 9.09572C0.0209815 9.11102 0.0251913 9.12592 0.0290113 9.14102C0.0324913 9.15492 0.0355415 9.16892 0.0397115 9.18262C0.0441815 9.19742 0.0497217 9.21172 0.0549217 9.22622C0.0598617 9.23992 0.0643716 9.25372 0.0699616 9.26732C0.0755516 9.28082 0.0821613 9.29372 0.0883913 9.30692C0.0949713 9.32092 0.101161 9.33492 0.108461 9.34862C0.115251 9.36122 0.122942 9.37322 0.130292 9.38552C0.138282 9.39892 0.145842 9.41242 0.154572 9.42552C0.163632 9.43912 0.173731 9.45182 0.183481 9.46482C0.191651 9.47582 0.199212 9.48692 0.207932 9.49752C0.226972 9.52082 0.247041 9.54312 0.268221 9.56422C0.268391 9.56442 0.268482 9.56462 0.268652 9.56472L3.9353 13.2314C4.2933 13.5893 4.8737 13.5893 5.2317 13.2314C5.5896 12.8734 5.5896 12.293 5.2317 11.935L3.12985 9.83312Z" />
<path d="M21.7922 14.9978C21.801 14.9872 21.8086 14.976 21.8168 14.965C21.8265 14.952 21.8366 14.9393 21.8456 14.9258C21.8544 14.9127 21.8619 14.8991 21.8699 14.8857C21.8772 14.8735 21.8849 14.8615 21.8917 14.8489C21.899 14.8353 21.9052 14.8212 21.9118 14.8072C21.918 14.794 21.9245 14.7811 21.9302 14.7676C21.9357 14.7541 21.9403 14.7402 21.9452 14.7265C21.9504 14.712 21.9559 14.6978 21.9604 14.683C21.9646 14.6692 21.9676 14.6552 21.9711 14.6413C21.9749 14.6263 21.9791 14.6113 21.9822 14.596C21.9854 14.5799 21.9873 14.5636 21.9896 14.5474C21.9915 14.5341 21.9941 14.5209 21.9954 14.5074C22.0014 14.4472 22.0014 14.3866 21.9954 14.3264C21.9941 14.3129 21.9916 14.2997 21.9896 14.2863C21.9873 14.2701 21.9854 14.2538 21.9822 14.2378C21.9791 14.2224 21.9749 14.2075 21.9711 14.1924C21.9676 14.1785 21.9646 14.1646 21.9604 14.1508C21.9559 14.136 21.9504 14.1217 21.9452 14.1073C21.9403 14.0935 21.9357 14.0797 21.9302 14.0662C21.9246 14.0527 21.918 14.0397 21.9118 14.0266C21.9052 14.0126 21.899 13.9985 21.8917 13.9849C21.8849 13.9723 21.8772 13.9603 21.8699 13.948C21.8619 13.9346 21.8543 13.921 21.8456 13.908C21.8365 13.8945 21.8265 13.8817 21.8168 13.8688C21.8086 13.8578 21.801 13.8466 21.7922 13.8359C21.7734 13.8129 21.7534 13.7908 21.7324 13.7698C21.7321 13.7694 21.7318 13.7691 21.7315 13.7688L18.0649 10.1021C17.7069 9.74412 17.1265 9.74412 16.7685 10.1021C16.4105 10.4601 16.4105 11.0405 16.7685 11.3985L18.8703 13.5003H8.25C7.7438 13.5003 7.3334 13.9107 7.3334 14.417C7.3334 14.9232 7.7438 15.3336 8.25 15.3336H18.8703L16.7685 17.4354C16.4105 17.7934 16.4105 18.3738 16.7685 18.7318C17.1265 19.0898 17.7069 19.0898 18.0649 18.7318L21.7315 15.0651C21.7319 15.0648 21.7321 15.0644 21.7324 15.0641C21.7534 15.043 21.7734 15.0208 21.7922 14.9978Z" />
</svg>
